<?xml version="1.0" encoding="UTF-8"?>
<svg width="24px" height="24px" viewBox="0 0 24 24" version="1.1" xmlns="http://www.w3.org/2000/svg" xmlns:xlink="http://www.w3.org/1999/xlink">
    <title>DCE4E74F-7C32-4F72-A3FD-D2E02BA5BA16@3x</title>
    <defs>
        <path d="M8.5046832,18 C9.15408632,18 9.73011938,17.8538071 10.2327824,17.5614213 C10.7354454,17.2690355 11.133517,16.8822335 11.4269972,16.4010152 C11.6785518,15.9885424 11.8291786,15.5492179 11.8788778,15.0830415 L11.8932104,14.8668995 L15.5856749,14.8659898 C16.0227732,14.8659898 16.3677686,14.7609137 16.6206612,14.5507614 C16.8735537,14.3406091 17,14.0619289 17,13.7147208 C17,13.2639594 16.8204775,12.8390863 16.4614325,12.4401015 C16.1023875,12.0411168 15.7261708,11.6497462 15.3327824,11.2659898 C15.1267218,11.071066 14.9674931,10.8152284 14.8550964,10.4984772 C14.7426997,10.1817259 14.6584022,9.83756345 14.6022039,9.46598985 C14.5460055,9.09441624 14.5054178,8.72284264 14.4804408,8.35126904 C14.4429752,7.24873096 14.3071625,6.27106599 14.0730028,5.41827411 C13.838843,4.56548223 13.479798,3.85431472 12.9958678,3.28477157 C12.5119376,2.71522843 11.8797062,2.29340102 11.0991736,2.01928934 C10.943067,1.44670051 10.6355372,0.967005076 10.176584,0.580203046 C9.71763085,0.193401015 9.16033058,0 8.5046832,0 C7.84279155,0 7.28236915,0.193401015 6.82341598,0.580203046 C6.36446281,0.967005076 6.05693297,1.44670051 5.90082645,2.01928934 C5.12029385,2.29340102 4.48806244,2.71522843 4.00413223,3.28477157 C3.52020202,3.85431472 3.15959596,4.56548223 2.92231405,5.41827411 C2.68503214,6.27106599 2.55078053,7.24873096 2.51955923,8.35126904 C2.48833792,8.72284264 2.44618916,9.09441624 2.39311295,9.46598985 C2.34003673,9.83756345 2.25730028,10.1817259 2.14490358,10.4984772 C2.03250689,10.8152284 1.87327824,11.071066 1.66721763,11.2659898 C1.2738292,11.6497462 0.897612489,12.0411168 0.538567493,12.4401015 C0.179522498,12.8390863 0,13.2639594 0,13.7147208 C0,14.0619289 0.126446281,14.3406091 0.379338843,14.5507614 C0.632231405,14.7609137 0.977226814,14.8659898 1.41432507,14.8659898 L5.1047831,14.8668995 L5.12360713,15.0829483 C5.17789397,15.5487517 5.33081464,15.9865845 5.58236915,16.3964467 C5.8758494,16.8746193 6.27235996,17.2614213 6.77190083,17.5568528 C7.27144169,17.8522843 7.84903581,18 8.5046832,18 Z M15.0330579,13.3949239 L1.94820937,13.3949239 L1.94820937,13.2852792 C2.0231405,13.2060914 2.12304867,13.1025381 2.24793388,12.9746193 C2.3728191,12.8467005 2.51331497,12.7050761 2.66942149,12.5497462 C2.82552801,12.3944162 2.97539027,12.2314721 3.11900826,12.0609137 C3.27511478,11.884264 3.41248852,11.680203 3.53112948,11.448731 C3.64977043,11.2172589 3.74811754,10.9538071 3.8261708,10.6583756 C3.90422406,10.3629442 3.96666667,10.0370558 4.01349862,9.68071066 C4.06033058,9.32436548 4.09623508,8.93908629 4.12121212,8.5248731 C4.14618916,7.31878173 4.28044077,6.36091371 4.52396694,5.65126904 C4.76749311,4.94162437 5.08438935,4.41167513 5.47465565,4.06142132 C5.86492195,3.71116751 6.3067034,3.46903553 6.8,3.33502538 C6.90615243,3.3106599 6.98888889,3.26954315 7.04820937,3.21167513 C7.10752984,3.15380711 7.14343434,3.06700508 7.15592287,2.95126904 C7.17465565,2.50659898 7.30266299,2.14720812 7.5399449,1.87309645 C7.77722681,1.59898477 8.09880624,1.46192893 8.5046832,1.46192893 C8.90431589,1.46192893 9.22277319,1.59898477 9.4600551,1.87309645 C9.69733701,2.14720812 9.82534435,2.50659898 9.84407713,2.95126904 C9.85656566,3.06700508 9.89247016,3.15380711 9.95179063,3.21167513 C10.0111111,3.26954315 10.0938476,3.3106599 10.2,3.33502538 C10.6932966,3.46903553 11.1350781,3.71116751 11.5253444,4.06142132 C11.9156107,4.41167513 12.2309458,4.94162437 12.4713499,5.65126904 C12.7117539,6.36091371 12.8506887,7.31878173 12.8881543,8.5248731 C12.9006428,8.93908629 12.9318641,9.32436548 12.9818182,9.68071066 C13.0317723,10.0370558 13.097337,10.3629442 13.1785124,10.6583756 C13.2596878,10.9538071 13.3580349,11.2172589 13.4735537,11.448731 C13.5890725,11.680203 13.7217631,11.884264 13.8716253,12.0609137 C14.0214876,12.2314721 14.174472,12.3944162 14.3305785,12.5497462 C14.486685,12.7050761 14.6256198,12.8467005 14.7473829,12.9746193 C14.869146,13.1025381 14.964371,13.2060914 15.0330579,13.2852792 L15.0330579,13.3949239 Z M8.5046832,16.693401 C7.98016529,16.693401 7.54931129,16.5274112 7.21212121,16.1954315 C6.91707989,15.9049492 6.73916724,15.5246907 6.67838326,15.0546558 L6.66068638,14.8668995 L10.3373071,14.8668995 L10.3216167,15.0546558 C10.2608328,15.5246907 10.0829201,15.9049492 9.78787879,16.1954315 C9.45068871,16.5274112 9.02295684,16.693401 8.5046832,16.693401 Z" id="path-bell"></path>
    </defs>
    <g id="Découpe" stroke="none" stroke-width="1" fill="none" fill-rule="evenodd">
        <g transform="translate(-284.000000, -471.000000)" id="bell">
            <g transform="translate(284.000000, 471.000000)">
                <g id="Mask-2" transform="translate(4.000000, 3.000000)">
                    <mask id="mask-2" fill="white">
                        <use xlink:href="#path-bell"></use>
                    </mask>
                    <use id="Mask" fill="#FFFFFF" fill-rule="nonzero" xlink:href="#path-bell"></use>
                </g>
            </g>
        </g>
    </g>
</svg>