<?xml version="1.0" encoding="UTF-8"?>
<svg width="24px" height="24px" viewBox="0 0 24 24" version="1.1" xmlns="http://www.w3.org/2000/svg" xmlns:xlink="http://www.w3.org/1999/xlink">
    <!-- Generator: sketchtool 58 (101010) - https://sketch.com -->
    <title>C0C11B20-4AB7-44A3-A70A-6619CC720AF9@3x</title>
    <desc>Created with sketchtool.</desc>
    <defs>
        <path d="M6.77784665,11.4166486 C7.41068051,11.4262428 7.94950479,10.894131 7.94806678,10.2610511 C7.94658786,9.63373482 7.42392971,9.1140639 6.79155272,9.11124067 C6.15977316,9.10840575 5.63911821,9.62438658 5.63618914,10.2561661 C5.63331949,10.8879808 6.14392332,11.4070192 6.77784665,11.4166486 L6.77784665,11.4166486 Z M18.3639056,13.7379297 C18.3628498,13.09877 17.8347444,12.5751629 17.1993099,12.5834217 C16.5674601,12.5916102 16.0441693,13.121262 16.0525687,13.744115 C16.0610735,14.3747348 16.585524,14.8915591 17.214246,14.8888985 C17.8480639,14.8861821 18.3648882,14.3687604 18.3639056,13.7379297 L18.3639056,13.7379297 Z M7.94745296,13.7400032 C7.95136741,13.107099 7.41795527,12.5788179 6.77953355,12.5833866 C6.14859744,12.5879201 5.63539297,13.1077668 5.63641063,13.7413738 C5.63743131,14.3728371 6.15738339,14.8899073 6.78990096,14.8884695 C7.42171565,14.8870256 7.9435655,14.3692875 7.94745296,13.7400032 L7.94745296,13.7400032 Z M10.2661118,18.363731 C10.894623,18.362393 11.4178083,17.8394537 11.4179489,17.2124537 C11.4180895,16.5843642 10.8957476,16.0569265 10.2690639,16.0522875 C9.6372492,16.0475783 9.10678914,16.5818339 9.11132268,17.2181821 C9.11585623,17.8521406 9.63292652,18.3650639 10.2661118,18.363731 L10.2661118,18.363731 Z M14.8883259,13.7624249 C14.9033674,13.1229137 14.3927284,12.5944217 13.7498786,12.5841597 C13.1198562,12.5740735 12.5974441,13.0827796 12.5840543,13.7192684 C12.5708403,14.3479904 13.0795463,14.8735655 13.7155431,14.8882907 C14.3471821,14.9028754 14.8733546,14.3977188 14.8883259,13.7624249 L14.8883259,13.7624249 Z M9.1108181,10.2599968 C9.10787859,10.8888594 9.62530032,11.4122556 10.2556038,11.4179489 C10.8878051,11.4236773 11.4220607,10.8898786 11.4177732,10.256869 C11.4134856,9.62688179 10.8916006,9.10967093 10.2612268,9.11082872 C9.62863898,9.11195527 9.11378275,9.6262492 9.1108181,10.2599968 L9.1108181,10.2599968 Z M12.5821214,10.251492 C12.5692939,10.8745559 13.0855208,11.4024856 13.7214824,11.4166134 C14.3478498,11.4305304 14.8760958,10.9170447 14.8881502,10.2824537 C14.9002396,9.64772204 14.3986677,9.12646965 13.7616869,9.11184984 C13.1231246,9.09719489 12.5954058,9.6070607 12.5821214,10.251492 L12.5821214,10.251492 Z M17.2056358,9.11124355 C16.5753674,9.11367732 16.0510575,9.63767093 16.0521453,10.2640735 C16.0532013,10.8896326 16.5800767,11.4154537 17.2080958,11.4177452 C17.8433898,11.4199872 18.3679457,10.8913546 18.3637987,10.2529329 C18.359722,9.61946645 17.8415974,9.10879233 17.2056358,9.11124355 L17.2056358,9.11124355 Z M11.4175974,13.7462236 C11.4253291,13.1179233 10.9119489,12.5941054 10.2770767,12.5825783 C9.64838978,12.5712268 9.12379872,13.0823227 9.11163898,13.7181438 C9.09958466,14.3510831 9.60449521,14.8747604 10.2398594,14.888361 C10.8772268,14.9019617 11.4097252,14.3855591 11.4175974,13.7462236 L11.4175974,13.7462236 Z M7.94764217,17.2123834 C7.95228115,16.5919553 7.42350799,16.0595974 6.79626198,16.0531661 C6.16504473,16.0467348 5.6335655,16.5798658 5.6362264,17.2169521 C5.63883706,17.8491534 6.15910543,18.3651693 6.7921853,18.3636265 C7.42066134,18.3620415 7.94293291,17.8417029 7.94764217,17.2123834 L7.94764217,17.2123834 Z M9.11989776,5.62418211 L14.8798914,5.62418211 L14.8798914,3.32890735 L9.11989776,3.32890735 L9.11989776,5.62418211 Z M16.9904153,1 C16.9491214,1.01950479 16.9090927,1.04245367 16.8663578,1.05798722 C16.3598658,1.24210543 16.0624089,1.62801917 16.0532716,2.16940895 C16.0404089,2.92974441 16.03823,3.69071246 16.0530256,4.45101278 C16.0662748,5.13034185 16.5839776,5.64400319 17.2180415,5.63082428 C17.8383291,5.61792652 18.37877,5.11515974 18.3680863,4.41857508 C18.35677,3.68157508 18.3627796,2.94425879 18.3667508,2.20708307 C18.368508,1.8805623 18.2790319,1.5796262 18.037278,1.36774441 C17.8586773,1.21117891 17.6226166,1.12022684 17.4121406,1 L16.9904153,1 Z M6.58785942,1 C6.53985304,1.01996166 6.49286581,1.04308626 6.44362939,1.05939297 C5.96841534,1.21676677 5.64670927,1.62074441 5.64024281,2.1194345 C5.62969968,2.93255591 5.6281885,3.74620447 5.64438978,4.5591853 C5.65229712,4.954623 5.85802875,5.26578594 6.20082109,5.45858466 C7.01826518,5.91833546 7.93070288,5.3839393 7.94785304,4.43351118 C7.96127796,3.69064217 7.95428435,2.94728115 7.94869649,2.20416613 C7.94602556,1.8436262 7.83166773,1.51714058 7.54032588,1.29113099 C7.38291693,1.16897125 7.18772843,1.09545048 7.00958466,1 L6.58785942,1 Z M1,5.32268371 C1.12370607,5.00979872 1.2045016,4.67009904 1.37979872,4.38944089 C1.78855591,3.73520447 2.40325559,3.37181789 3.17838658,3.32546326 C3.60288818,3.30001917 4.03016613,3.32089457 4.46626518,3.32089457 L4.46626518,5.62734505 L3.33112141,5.62734505 L3.33112141,20.6696518 L20.6709521,20.6696518 L20.6709521,5.63932907 L19.5379521,5.63932907 L19.5379521,3.34271885 C19.540623,3.34032907 19.5491981,3.3260607 19.5577029,3.32613099 C20.0432141,3.32950479 20.5366677,3.2798115 21.0126198,3.34964217 C22.0548083,3.50258786 22.7494601,4.2094345 22.9666837,5.24445367 C22.972377,5.27165495 22.9886486,5.29664217 23,5.32268371 L23,20.9968051 C22.9868562,21.0341629 22.9693898,21.070607 22.9612013,21.1090192 C22.8170415,21.7893674 22.4562204,22.3252396 21.8522396,22.6677859 C21.5889425,22.8171118 21.2832268,22.8915463 20.9968051,23 L3.00319489,23 C2.96569649,22.9869968 2.92911182,22.9696358 2.89062939,22.961623 C2.19520447,22.8168658 1.65876997,22.4386486 1.3122524,21.8239137 C1.1692524,21.5701757 1.1018115,21.2738083 1,20.9968051 L1,5.32268371 Z" id="path-calendar"></path>
    </defs>
    <g id="Découpe" stroke="none" stroke-width="1" fill="none" fill-rule="evenodd">
        <g transform="translate(-191.000000, -297.000000)" id="calendar-Icon/Calendar">
            <g transform="translate(191.000000, 297.000000)">
                <mask id="mask-2" fill="white">
                    <use xlink:href="#path-calender"></use>
                </mask>
                <use id="Mask" fill="currentColor" xlink:href="#path-calendar"></use>
            </g>
        </g>
    </g>
</svg>
