<svg version="1.1" xmlns="http://www.w3.org/2000/svg" xmlns:xlink="http://www.w3.org/1999/xlink">
  <path d="M9.00530348,13.7007435 C9.24572775,13.7007435 9.45079552,13.6210502 9.62050678,13.4616636 C9.79021803,13.302277 9.87507366,13.1184944 9.87507366,12.910316 L9.87507366,3.53252788 L9.81143194,2.16635688 L10.4584561,2.82992565 L11.9116087,4.24488848 C12.0601061,4.40752788 12.2581025,4.48884758 12.5055981,4.48884758 C12.7177372,4.48884758 12.901591,4.42379182 13.0571597,4.2936803 C13.2127283,4.16356877 13.2905127,3.99767658 13.2905127,3.79600372 C13.2905127,3.60083643 13.205657,3.42843866 13.0359458,3.27881041 L9.66293459,0.273234201 C9.54272245,0.169144981 9.43134944,0.0975836431 9.32881556,0.0585501859 C9.22628167,0.0195167286 9.11844431,0 9.00530348,0 C8.89216264,0 8.78432528,0.0195167286 8.6817914,0.0585501859 C8.57925751,0.0975836431 8.4678845,0.169144981 8.34767236,0.273234201 L4.97466117,3.27881041 C4.80494991,3.42843866 4.72009428,3.60083643 4.72009428,3.79600372 C4.72009428,3.99767658 4.79611078,4.16356877 4.94814378,4.2936803 C5.10017678,4.42379182 5.28579847,4.48884758 5.50500884,4.48884758 C5.74543312,4.48884758 5.94342958,4.40752788 6.09899823,4.24488848 L7.55215085,2.82992565 L8.20978197,2.15659851 L8.13553329,3.53252788 L8.13553329,12.910316 C8.13553329,13.1184944 8.22038892,13.302277 8.39010018,13.4616636 C8.55981143,13.6210502 8.7648792,13.7007435 9.00530348,13.7007435 Z M14.7648792,21 C15.8397171,21 16.6476134,20.7527881 17.1885681,20.2583643 C17.7295227,19.7639405 18,19.0320632 18,18.0627323 L18,8.92890335 C18,7.95957249 17.7295227,7.22606877 17.1885681,6.72839219 C16.6476134,6.23071561 15.8397171,5.98187732 14.7648792,5.98187732 L12.0176783,5.98187732 L12.0176783,7.66031599 L14.6906305,7.66031599 C15.1644078,7.66031599 15.5321155,7.77578996 15.7937537,8.00673792 C16.0553919,8.23768587 16.186211,8.58410781 16.186211,9.04600372 L16.186211,17.945632 C16.186211,18.4010223 16.0553919,18.7441914 15.7937537,18.9751394 C15.5321155,19.2060874 15.1644078,19.3215613 14.6906305,19.3215613 L3.30936948,19.3215613 C2.83559222,19.3215613 2.46965233,19.2060874 2.21154979,18.9751394 C1.95344726,18.7441914 1.82439599,18.4010223 1.82439599,17.945632 L1.82439599,9.04600372 C1.82439599,8.58410781 1.95344726,8.23768587 2.21154979,8.00673792 C2.46965233,7.77578996 2.83559222,7.66031599 3.30936948,7.66031599 L5.9929287,7.66031599 L5.9929287,5.98187732 L3.2351208,5.98187732 C2.16735415,5.98187732 1.36122569,6.22908922 0.816735415,6.72351301 C0.272245138,7.2179368 0,7.95306691 0,8.92890335 L0,18.0627323 C0,19.0320632 0.272245138,19.7639405 0.816735415,20.2583643 C1.36122569,20.7527881 2.16735415,21 3.2351208,21 L14.7648792,21 Z" id="path-export"></path>
</svg>