<?xml version="1.0" encoding="UTF-8"?>
<svg width="24px" height="24px" viewBox="0 0 24 24" version="1.1" xmlns="http://www.w3.org/2000/svg" xmlns:xlink="http://www.w3.org/1999/xlink">
    <title>B81BA66C-BF32-4E22-BD16-085E28D266C7@3x</title>
    <defs>
        <path d="M11.4960938,17.9296875 C12.375,17.9296875 13.0356445,17.7055664 13.4780273,17.2573242 C13.9204102,16.809082 14.1416016,16.1425781 14.1416016,15.2578125 L14.1416016,7.70800781 C14.1416016,7.33300781 14.1210938,7.01660156 14.0800781,6.75878906 C14.0390625,6.50097656 13.9599609,6.26513672 13.8427734,6.05126953 C13.7255859,5.83740234 13.5498047,5.61328125 13.3154297,5.37890625 L8.85058594,0.84375 C8.62792969,0.615234375 8.41113281,0.439453125 8.20019531,0.31640625 C7.98925781,0.193359375 7.75927734,0.109863281 7.51025391,0.0659179688 C7.26123047,0.0219726562 6.96679688,0 6.62695312,0 L2.64550781,0 C1.77246094,0 1.11328125,0.225585938 0.66796875,0.676757812 C0.22265625,1.12792969 0,1.79589844 0,2.68066406 L0,15.2578125 C0,16.1425781 0.22265625,16.809082 0.66796875,17.2573242 C1.11328125,17.7055664 1.77246094,17.9296875 2.64550781,17.9296875 L11.4960938,17.9296875 Z M11.3818359,16.4179688 L2.75097656,16.4179688 C2.34082031,16.4179688 2.03173828,16.3125 1.82373047,16.1015625 C1.61572266,15.890625 1.51171875,15.5859375 1.51171875,15.1875 L1.51171875,2.75097656 C1.51171875,2.35839844 1.6171875,2.05517578 1.828125,1.84130859 C2.0390625,1.62744141 2.34960938,1.52050781 2.75976562,1.52050781 L6.37207031,1.52050781 L6.37207031,6.17871094 C6.37207031,6.74707031 6.51123047,7.17041016 6.78955078,7.44873047 C7.06787109,7.72705078 7.48535156,7.86621094 8.04199219,7.86621094 L12.6386719,7.86621094 L12.6386719,15.1875 C12.6386719,15.5859375 12.534668,15.890625 12.3266602,16.1015625 C12.1186523,16.3125 11.8037109,16.4179688 11.3818359,16.4179688 Z M12.4013672,6.50390625 L8.20019531,6.50390625 C8.03613281,6.50390625 7.91601562,6.46582031 7.83984375,6.38964844 C7.76367188,6.31347656 7.72558594,6.19042969 7.72558594,6.02050781 L7.72558594,1.7578125 L12.4013672,6.50390625 Z M10.0546875,11.1357422 C10.2070312,11.1357422 10.3330078,11.0844727 10.4326172,10.9819336 C10.5322266,10.8793945 10.5820312,10.7548828 10.5820312,10.6083984 C10.5820312,10.4619141 10.5322266,10.340332 10.4326172,10.2436523 C10.3330078,10.1469727 10.2070312,10.0986328 10.0546875,10.0986328 L10.0546875,10.0986328 L3.91992188,10.0986328 C3.76171875,10.0986328 3.63427734,10.1469727 3.53759766,10.2436523 C3.44091797,10.340332 3.39257812,10.4619141 3.39257812,10.6083984 C3.39257812,10.7548828 3.44091797,10.8793945 3.53759766,10.9819336 C3.63427734,11.0844727 3.76171875,11.1357422 3.91992188,11.1357422 L3.91992188,11.1357422 L10.0546875,11.1357422 Z M10.0546875,13.9658203 C10.2070312,13.9658203 10.3330078,13.9174805 10.4326172,13.8208008 C10.5322266,13.7241211 10.5820312,13.6025391 10.5820312,13.4560547 C10.5820312,13.3095703 10.5322266,13.1850586 10.4326172,13.0825195 C10.3330078,12.9799805 10.2070312,12.9287109 10.0546875,12.9287109 L10.0546875,12.9287109 L3.91992188,12.9287109 C3.76171875,12.9287109 3.63427734,12.9799805 3.53759766,13.0825195 C3.44091797,13.1850586 3.39257812,13.3095703 3.39257812,13.4560547 C3.39257812,13.6025391 3.44091797,13.7241211 3.53759766,13.8208008 C3.63427734,13.9174805 3.76171875,13.9658203 3.91992188,13.9658203 L3.91992188,13.9658203 L10.0546875,13.9658203 Z" id="path-file"></path>
    </defs>
    <g id="Découpe" stroke="none" stroke-width="1" fill="none" fill-rule="evenodd">
        <g transform="translate(-284.000000, -675.000000)" id="file">
            <g transform="translate(284.000000, 675.315436)">
                <g id="Mask-2" transform="translate(5.000000, 3.000000)">
                    <mask id="mask-2" fill="white">
                        <use xlink:href="#path-file"></use>
                    </mask>
                    <use id="Mask" fill="#FFFFFF" fill-rule="nonzero" xlink:href="#path-file"></use>
                </g>
            </g>
        </g>
    </g>
</svg>