<?xml version="1.0" encoding="UTF-8"?>
<svg width="24px" height="24px" viewBox="0 0 24 24" version="1.1" xmlns="http://www.w3.org/2000/svg" xmlns:xlink="http://www.w3.org/1999/xlink">
    <title>9375692B-604D-4400-88A3-AD9DAB295FA7@3x</title>
    <defs>
        <path d="M17.4166667,16 C18.2314815,16 18.8657407,15.7682485 19.3194444,15.3047456 C19.7731481,14.8412426 20,14.1551363 20,13.2464265 L20,4.34534019 C20,3.43663046 19.7623457,2.75052411 19.287037,2.28702115 C18.8117284,1.8235182 18.1080247,1.59176672 17.1759259,1.59176672 L8.91666667,1.59176672 C8.61419753,1.59176672 8.35648148,1.55212502 8.14351852,1.47284162 C7.93055556,1.39355822 7.70679012,1.25938632 7.47222222,1.0703259 L6.96296296,0.649514008 C6.75925926,0.490947208 6.56635802,0.362874023 6.38425926,0.265294454 C6.20216049,0.167714885 6.00308642,0.09910425 5.78703704,0.05946255 C5.57098765,0.01982085 5.31481481,0 5.01851852,0 L2.52777778,0 C1.73148148,0 1.11111111,0.225652754 0.666666667,0.676958262 C0.222222222,1.12826377 0,1.80217267 0,2.69868496 L0,13.2464265 C0,14.161235 0.237654321,14.848866 0.712962963,15.3093196 C1.1882716,15.7697732 1.89197531,16 2.82407407,16 L17.4166667,16 Z M18.4065432,4.96784906 L1.59166255,4.96784906 L1.59259259,2.80846198 C1.59259259,2.39984753 1.70061728,2.09033734 1.91666667,1.87993139 C2.13271605,1.66952544 2.44444444,1.56432247 2.85185185,1.56432247 L4.60185185,1.56432247 C4.89814815,1.56432247 5.15123457,1.60396417 5.36111111,1.68324757 C5.57098765,1.76253097 5.7962963,1.89975224 6.03703704,2.09491138 L6.5462963,2.51572327 C6.74382716,2.68038879 6.93518519,2.80846198 7.12037037,2.89994282 C7.30555556,2.99142367 7.50771605,3.05698494 7.72685185,3.09662664 C7.94598765,3.13626834 8.2037037,3.15608919 8.5,3.15608919 L17.1018519,3.15608919 C17.5216049,3.15608919 17.8441358,3.26739089 18.0694444,3.48999428 C18.2947531,3.71259767 18.4074074,4.03735468 18.4074074,4.46426529 L18.4065432,4.96784906 Z M17.1018519,14.4356775 L2.88888889,14.4356775 C2.47530864,14.4356775 2.1558642,14.3259005 1.93055556,14.1063465 C1.70524691,13.8867925 1.59259259,13.5605108 1.59259259,13.1275014 L1.59166255,6.38548504 L18.4065432,6.38548504 L18.4074074,13.1366495 C18.4074074,13.5635601 18.2947531,13.8867925 18.0694444,14.1063465 C17.8441358,14.3259005 17.5216049,14.4356775 17.1018519,14.4356775 Z" id="path-folder"></path>
    </defs>
    <g id="Découpe" stroke="none" stroke-width="1" fill="none" fill-rule="evenodd">
        <g transform="translate(-284.000000, -573.000000)" id="folder">
            <g transform="translate(284.000000, 573.000000)">
                <g id="Mask-2" transform="translate(2.000000, 4.000000)">
                    <mask id="mask-2" fill="white">
                        <use xlink:href="#path-folder"></use>
                    </mask>
                    <use id="Mask" fill="#FFFFFF" fill-rule="nonzero" xlink:href="#path-folder"></use>
                </g>
            </g>
        </g>
    </g>
</svg>