<?xml version="1.0" encoding="UTF-8"?>
<svg width="24px" height="24px" viewBox="0 0 24 24" version="1.1" xmlns="http://www.w3.org/2000/svg" xmlns:xlink="http://www.w3.org/1999/xlink">
    <title>A9A085E0-0357-43B8-8978-902F1E1CD667@3x</title>
    <defs>
        <path d="M9,18 C10.2345679,18 11.3950617,17.7638889 12.4814815,17.2916667 C13.5679012,16.8194444 14.5246914,16.1697531 15.3518519,15.3425926 C16.1790123,14.5154321 16.8271605,13.5601852 17.2962963,12.4768519 C17.7654321,11.3935185 18,10.2345679 18,9 C18,7.7654321 17.7654321,6.60648148 17.2962963,5.52314815 C16.8271605,4.43981481 16.1774691,3.48302469 15.3472222,2.65277778 C14.5169753,1.82253086 13.558642,1.17283951 12.4722222,0.703703704 C11.3858025,0.234567901 10.2253086,0 8.99074074,0 C7.76851852,0 6.61419753,0.234567901 5.52777778,0.703703704 C4.44135802,1.17283951 3.48302469,1.82253086 2.65277778,2.65277778 C1.82253086,3.48302469 1.17283951,4.43981481 0.703703704,5.52314815 C0.234567901,6.60648148 0,7.7654321 0,9 C0,10.2345679 0.236111111,11.3935185 0.708333333,12.4768519 C1.18055556,13.5601852 1.83024691,14.5154321 2.65740741,15.3425926 C3.4845679,16.1697531 4.44135802,16.8194444 5.52777778,17.2916667 C6.61419753,17.7638889 7.77160494,18 9,18 Z M8.11683128,7.63669959 L7.86849556,7.59266912 C7.46606214,7.51323845 7.07017141,7.40947352 6.68082339,7.28137435 L6.63139918,7.26481481 L6.63038549,7.23507181 C6.59637188,6.91609977 6.46031746,6.64021164 6.22222222,6.40740741 L6.212107,6.399893 L6.34916552,6.06601509 C6.6568549,5.35328075 7.02503429,4.66769547 7.4537037,4.00925926 C8.05384088,3.08744856 8.75666819,2.25152416 9.56218564,1.50148605 L9.73079012,1.35047737 L10.0246914,1.38168724 L10.0246914,1.38168724 L10.058428,1.38734979 L9.84866898,1.75665509 C9.3515625,2.66811343 8.95601852,3.62731481 8.66203704,4.63425926 C8.41705247,5.47337963 8.24862558,6.32515914 8.15675637,7.1895978 L8.11683128,7.63669959 Z M4.44644444,6.23344033 L4.1075528,6.01170799 C3.65933323,5.70582083 3.23784563,5.36483522 2.84308999,4.98875115 L2.61335802,4.7627572 L2.63541667,4.72916667 C2.91242284,4.32021605 3.22839506,3.9382716 3.58333333,3.58333333 C4.29320988,2.87345679 5.1095679,2.31790123 6.03240741,1.91666667 C6.64763374,1.64917695 7.2909808,1.47085048 7.96244856,1.38168724 L8.08311934,1.36838683 L8.03600823,1.41769547 C7.37620027,2.12688615 6.79320988,2.89506173 6.28703704,3.72222222 C5.86522634,4.41152263 5.50342936,5.12749581 5.20164609,5.87014175 L5.14912757,6.00483128 L5.06141345,6.00831444 C4.85128496,6.03048627 4.65828924,6.09700176 4.4824263,6.20786092 L4.44644444,6.23344033 Z M13.0419342,7.28272428 L12.9351852,7.16203704 L12.9351852,7.16203704 C12.702381,6.9265873 12.4264928,6.7920446 12.1075208,6.75840892 L11.9726337,6.75176132 L11.9212963,6.50810185 C11.8194444,5.96257716 11.7654321,5.40432099 11.7592593,4.83333333 C11.7469136,4.22222222 11.7962963,3.61574074 11.9074074,3.01388889 C11.962963,2.71296296 12.0316358,2.41705247 12.1134259,2.12615741 L12.1506749,2.00364609 L12.3051215,2.07436343 C13.0916763,2.45920139 13.7955247,2.96219136 14.4166667,3.58333333 C15.0378086,4.20447531 15.5407986,4.90832369 15.9256366,5.69487847 L15.956963,5.76463374 L15.6990741,5.953125 C14.9814815,6.45659722 14.2083333,6.86111111 13.3796296,7.16666667 L13.0419342,7.28272428 Z M9.93518519,7.78703704 L9.51312366,7.78060912 L9.51312366,7.78060912 L9.23880658,7.76627984 L9.24016204,7.74855324 C9.3130787,6.74565972 9.49537037,5.7662037 9.78703704,4.81018519 C10.0300926,4.01350309 10.3418692,3.25238715 10.7223669,2.52683738 L10.9338848,2.14060082 L10.8581481,2.46481481 C10.8304938,2.59320988 10.8052469,2.72222222 10.7824074,2.85185185 C10.6682099,3.5 10.6141975,4.16358025 10.6203704,4.84259259 C10.6272291,5.531893 10.6974356,6.20595184 10.8309899,6.86476909 L10.9075473,7.21319342 L10.845616,7.28287982 C10.7458428,7.40684051 10.6710128,7.54015495 10.6211262,7.68282313 L10.5988724,7.76101235 L10.379919,7.77531829 C10.2323495,7.78235918 10.0841049,7.78626543 9.93518519,7.78703704 Z M4.12512757,11.253358 L4.45833333,11.412037 C3.42849794,10.94393 2.46494437,10.3479271 1.56767261,9.62402835 L1.33651852,9.43186008 L1.33144719,9.34756516 C1.32653178,9.23245313 1.32407407,9.11659808 1.32407407,9 C1.32407407,7.95061728 1.52314815,6.96296296 1.9212963,6.03703704 L2.02761317,5.80466667 L2.12207105,5.89342404 C2.56349206,6.29805996 3.03363568,6.66641471 3.53250189,6.99848828 L3.83014815,7.19001646 L3.82331822,7.23507181 C3.81764928,7.28823381 3.81481481,7.34259259 3.81481481,7.39814815 C3.81481481,7.79320988 3.9537037,8.12962963 4.23148148,8.40740741 L4.3537415,8.51795163 L4.3537415,8.51795163 L4.39903704,8.5511358 L4.37814358,8.6515775 C4.22648986,9.44604481 4.14247066,10.2519433 4.12608596,11.069273 L4.12512757,11.253358 Z M14.8644856,11.7874815 L14.5928819,11.5300926 C14.397473,11.3371914 14.2106481,11.1358025 14.0324074,10.9259259 C13.5868056,10.4012346 13.2032938,9.83736015 12.8818721,9.23430266 L12.863893,9.19903704 L12.9351852,9.13425926 L12.9351852,9.13425926 C13.1291887,8.93805115 13.2539053,8.71271101 13.3093348,8.45823885 L13.3190041,8.39416461 L13.6435185,8.28703704 L13.6435185,8.28703704 C14.5725309,7.96056241 15.4408627,7.52206219 16.2485139,6.97153635 L16.3846831,6.87502058 L16.4176955,6.98353909 C16.5960219,7.62825789 16.6851852,8.30041152 16.6851852,9 C16.6851852,9.69958848 16.5960219,10.372428 16.4176955,11.0185185 L16.3962716,11.0890123 L16.0121171,11.2879515 C15.7225271,11.4312224 15.4294315,11.5631382 15.1328304,11.6836991 L14.8644856,11.7874815 Z M8.07995885,12.4933251 L7.64026063,12.4186671 C6.86065386,12.2736816 6.09676497,12.0610616 5.34859396,11.780807 L5.26606584,11.7485021 L5.25954504,11.5497828 C5.24335086,10.755506 5.29812529,9.97313672 5.42386831,9.2026749 L5.49678189,8.79765432 L5.54195011,8.79006047 C5.79705215,8.73337113 6.02380952,8.60582011 6.22222222,8.40740741 L6.28269136,8.34043621 L6.35421391,8.36432351 C6.49726002,8.41068279 6.64153439,8.45436508 6.78703704,8.49537037 C7.07804233,8.57738095 7.37156715,8.64742378 7.66761149,8.70549887 L8.07363786,8.77763786 L8.08236168,9.26171696 C8.10998704,10.0963839 8.20667581,10.9172382 8.37242798,11.7242798 L8.44552263,12.057177 L8.3287037,12.162037 L8.3287037,12.162037 C8.25022046,12.2405203 8.18294911,12.3236647 8.12688964,12.4114701 L8.07995885,12.4933251 Z M10.6431193,12.6376543 L10.606198,12.5466742 C10.5389267,12.4079743 10.4464286,12.2797619 10.3287037,12.162037 C10.1324956,11.9658289 9.90715545,11.8396951 9.6526833,11.7836357 L9.54221399,11.7664115 L9.49588477,11.563786 C9.33356196,10.801326 9.23887365,10.0250533 9.21181984,9.23496799 L9.20509465,8.89668313 L9.47411187,8.91033636 C9.62717309,8.9154384 9.7808642,8.9175485 9.93518519,8.91666667 L10.3595679,8.90889346 L10.3595679,8.90889346 L10.7558436,8.88720165 L10.845616,9.01303855 C10.8788738,9.05461073 10.914903,9.09501764 10.9537037,9.13425926 C11.1477072,9.33046737 11.3716301,9.45660116 11.6254724,9.51266062 L11.7619342,9.53510288 L11.8230613,9.65842014 C12.1698013,10.3244117 12.5852623,10.9506173 13.0694444,11.537037 C13.2415981,11.7455418 13.420839,11.9465783 13.6071674,12.1401463 L13.648749,12.1825432 L13.3111568,12.2708048 C13.1558451,12.3083752 12.9996571,12.343107 12.8425926,12.375 C12.2143347,12.502572 11.5848575,12.5856386 10.954161,12.6241998 L10.6431193,12.6376543 Z M4.58761317,15.2671852 L4.42751736,15.1519821 C4.13093171,14.9299045 3.84953704,14.6863426 3.58333333,14.4212963 C2.87345679,13.7145062 2.31944444,12.8966049 1.9212963,11.9675926 C1.83281893,11.7611454 1.75417238,11.5517261 1.68535665,11.3393347 L1.60726749,11.0774239 L1.71347737,11.154321 C2.38620256,11.6241427 3.09083981,12.0310928 3.82738912,12.3751715 L4.15462551,12.5217695 L4.18111111,12.9111111 C4.21592593,13.337037 4.2712963,13.7601852 4.34722222,14.1805556 C4.41049383,14.5308642 4.48726852,14.8800154 4.5775463,15.2280093 L4.58761317,15.2671852 Z M9,16.6851852 C8.06721536,16.6851852 7.18320378,16.5266728 6.34796525,16.2096479 L6.04249383,16.0868066 L5.90592593,15.7018519 C5.7562963,15.2574074 5.63333333,14.8074074 5.53703704,14.3518519 C5.47283951,14.0481481 5.42049383,13.7419753 5.38,13.4333333 L5.32822222,12.9768807 L5.63734568,13.0797325 C6.40380658,13.3226452 7.18455647,13.50221 7.97959534,13.6184271 L7.98935802,13.6195144 C8.05862199,13.8193796 8.17173721,13.9986772 8.3287037,14.1574074 C8.56415344,14.3955026 8.84382086,14.5315571 9.16770597,14.5655707 L9.26830453,14.5718765 L9.461877,15.0015432 C9.67095336,15.4470165 9.902492,15.8816872 10.1564929,16.3055556 L10.322856,16.5735226 L10.029321,16.6183128 C9.69290123,16.6628944 9.34979424,16.6851852 9,16.6851852 Z M11.4785432,16.2722222 L11.2310242,15.8831733 C10.9039399,15.351547 10.6146548,14.801326 10.3631687,14.2325103 L10.3302305,14.1557449 L10.4380197,14.0349584 C10.505291,13.9510582 10.5613505,13.8626228 10.606198,13.7696523 L10.6073004,13.7659506 L10.8577389,13.7574303 C11.4968183,13.7257278 12.1352881,13.6522634 12.7731481,13.537037 C13.2515432,13.4506173 13.723594,13.340535 14.1893004,13.2067901 L14.6316626,13.0716955 L14.8101852,13.2119342 C14.917524,13.2937814 15.0266347,13.3737616 15.1375171,13.4518747 L15.2079259,13.4994156 L15.1519821,13.5792824 C14.9299045,13.8755787 14.6863426,14.15625 14.4212963,14.4212963 C13.7145062,15.1280864 12.8966049,15.6820988 11.9675926,16.0833333 L11.6556927,16.2096479 L11.6556927,16.2096479 L11.4785432,16.2722222 Z" id="path-globe"></path>
    </defs>
    <g id="Découpe" stroke="none" stroke-width="1" fill="none" fill-rule="evenodd">
        <g transform="translate(-284.000000, -607.000000)" id="globe">
            <g transform="translate(284.000000, 607.000000)">
                <g id="Mask-2" transform="translate(3.000000, 3.000000)">
                    <mask id="mask-2" fill="white">
                        <use xlink:href="#path-globe"></use>
                    </mask>
                    <use id="Mask" fill="#FFFFFF" fill-rule="nonzero" xlink:href="#path-globe"></use>
                </g>
            </g>
        </g>
    </g>
</svg>