<?xml version="1.0" encoding="UTF-8"?>
<svg width="24px" height="24px" viewBox="0 0 24 24" version="1.1" xmlns="http://www.w3.org/2000/svg" xmlns:xlink="http://www.w3.org/1999/xlink">
    <title>19927769-C924-46B1-A4A5-7A5CF7B73173@3x</title>
    <defs>
        <path d="M14.6953125,13.0078125 C15.2630208,13.0078125 15.7929688,12.9114583 16.2851562,12.71875 C16.7773438,12.5260417 17.2083333,12.2578125 17.578125,11.9140625 C17.9479167,11.5703125 18.2356771,11.1731771 18.4414062,10.7226562 C18.6471354,10.2721354 18.75,9.78645833 18.75,9.265625 C18.75,8.74479167 18.6549479,8.25390625 18.4648438,7.79296875 C18.2747396,7.33203125 18.0039062,6.92317708 17.6523438,6.56640625 C17.3007812,6.20963542 16.8828125,5.9296875 16.3984375,5.7265625 C16.3984375,4.89322917 16.2604167,4.12760417 15.984375,3.4296875 C15.7083333,2.73177083 15.3229167,2.12630208 14.828125,1.61328125 C14.3333333,1.10026042 13.7552083,0.703125 13.09375,0.421875 C12.4322917,0.140625 11.71875,0 10.953125,0 C10.2916667,0 9.69010417,0.106770833 9.1484375,0.3203125 C8.60677083,0.533854167 8.12369792,0.817708333 7.69921875,1.171875 C7.27473958,1.52604167 6.91145833,1.92447917 6.609375,2.3671875 C6.14583333,2.23697917 5.6875,2.21875 5.234375,2.3125 C4.78125,2.40625 4.36848958,2.59114583 3.99609375,2.8671875 C3.62369792,3.14322917 3.32291667,3.48958333 3.09375,3.90625 C2.86458333,4.32291667 2.7421875,4.79427083 2.7265625,5.3203125 C2.1640625,5.4140625 1.6796875,5.63151042 1.2734375,5.97265625 C0.8671875,6.31380208 0.553385417,6.74088542 0.33203125,7.25390625 C0.110677083,7.76692708 0,8.328125 0,8.9375 C0,9.48958333 0.114583333,10.0117188 0.34375,10.5039062 C0.572916667,10.9960938 0.889322917,11.4296875 1.29296875,11.8046875 C1.69661458,12.1796875 2.171875,12.4726562 2.71875,12.6835938 C3.265625,12.8945312 3.859375,13 4.5,13 L14.6953125,13.0078125 Z M14.6875,11.671875 L4.5,11.6640625 C3.90104167,11.6640625 3.36328125,11.5390625 2.88671875,11.2890625 C2.41015625,11.0390625 2.03645833,10.7070312 1.765625,10.2929688 C1.49479167,9.87890625 1.359375,9.42708333 1.359375,8.9375 C1.359375,8.44270833 1.45572917,7.99869792 1.6484375,7.60546875 C1.84114583,7.21223958 2.11848958,6.90104167 2.48046875,6.671875 C2.84244792,6.44270833 3.28125,6.328125 3.796875,6.328125 C3.89583333,6.328125 3.94270833,6.27604167 3.9375,6.171875 C3.93229167,5.43229167 4.08333333,4.85286458 4.390625,4.43359375 C4.69791667,4.01432292 5.09114583,3.74869792 5.5703125,3.63671875 C6.04947917,3.52473958 6.54947917,3.5546875 7.0703125,3.7265625 C7.15885417,3.75260417 7.22395833,3.7265625 7.265625,3.6484375 C7.50520833,3.22135417 7.79166667,2.83333333 8.125,2.484375 C8.45833333,2.13541667 8.85677083,1.85807292 9.3203125,1.65234375 C9.78385417,1.44661458 10.328125,1.34375 10.953125,1.34375 C11.7395833,1.34375 12.4375,1.53125 13.046875,1.90625 C13.65625,2.28125 14.140625,2.77604167 14.5,3.390625 C14.859375,4.00520833 15.0598958,4.67447917 15.1015625,5.3984375 C15.1119792,5.58072917 15.1132812,5.77083333 15.1054688,5.96875 C15.0976562,6.16666667 15.0833333,6.35677083 15.0625,6.5390625 C15.0572917,6.6328125 15.0989583,6.6875 15.1875,6.703125 C15.859375,6.84375 16.3945312,7.14192708 16.7929688,7.59765625 C17.1914062,8.05338542 17.390625,8.609375 17.390625,9.265625 C17.390625,9.70833333 17.2721354,10.1119792 17.0351562,10.4765625 C16.7981771,10.8411458 16.4752604,11.1315104 16.0664062,11.3476562 C15.6575521,11.5638021 15.1979167,11.671875 14.6875,11.671875 Z M9.5546875,10.375 C10.0963542,10.375 10.5911458,10.2408854 11.0390625,9.97265625 C11.4869792,9.70442708 11.84375,9.34505208 12.109375,8.89453125 C12.375,8.44401042 12.5078125,7.94270833 12.5078125,7.390625 C12.5078125,6.85416667 12.3776042,6.36979167 12.1171875,5.9375 C11.8567708,5.50520833 11.5169271,5.15885417 11.0976562,4.8984375 C10.6783854,4.63802083 10.2239583,4.50260417 9.734375,4.4921875 C9.703125,4.4921875 9.671875,4.49348958 9.640625,4.49609375 C9.609375,4.49869792 9.58072917,4.5 9.5546875,4.5 L9.984375,4.0625 C10.0208333,4.02604167 10.0494792,3.98046875 10.0703125,3.92578125 C10.0911458,3.87109375 10.1015625,3.8125 10.1015625,3.75 C10.1015625,3.63020833 10.0598958,3.52604167 9.9765625,3.4375 C9.89322917,3.34895833 9.7890625,3.3046875 9.6640625,3.3046875 C9.6015625,3.3046875 9.54166667,3.31770833 9.484375,3.34375 C9.42708333,3.36979167 9.37760417,3.40625 9.3359375,3.453125 L8.0859375,4.7265625 C8.00260417,4.81510417 7.95963542,4.92447917 7.95703125,5.0546875 C7.95442708,5.18489583 7.99739583,5.29166667 8.0859375,5.375 L9.3515625,6.640625 C9.43489583,6.72916667 9.53645833,6.7734375 9.65625,6.7734375 C9.78125,6.7734375 9.88671875,6.73046875 9.97265625,6.64453125 C10.0585938,6.55859375 10.1015625,6.45572917 10.1015625,6.3359375 C10.1015625,6.21614583 10.0625,6.11458333 9.984375,6.03125 L9.3984375,5.453125 C9.43489583,5.44791667 9.47265625,5.4453125 9.51171875,5.4453125 L9.6328125,5.4453125 L9.6328125,5.4453125 C9.98697917,5.45052083 10.3085938,5.54166667 10.5976562,5.71875 C10.8867188,5.89583333 11.1171875,6.13151042 11.2890625,6.42578125 C11.4609375,6.72005208 11.546875,7.04947917 11.546875,7.4140625 C11.546875,7.77864583 11.4570312,8.11197917 11.2773438,8.4140625 C11.0976562,8.71614583 10.8580729,8.95833333 10.5585938,9.140625 C10.2591146,9.32291667 9.92447917,9.4140625 9.5546875,9.4140625 C9.18489583,9.4140625 8.84895833,9.32291667 8.546875,9.140625 C8.24479167,8.95833333 8.00651042,8.71614583 7.83203125,8.4140625 C7.65755208,8.11197917 7.5703125,7.77864583 7.5703125,7.4140625 C7.5703125,7.27864583 7.52213542,7.16536458 7.42578125,7.07421875 C7.32942708,6.98307292 7.21614583,6.9375 7.0859375,6.9375 C6.95572917,6.9375 6.84244792,6.98307292 6.74609375,7.07421875 C6.64973958,7.16536458 6.6015625,7.27864583 6.6015625,7.4140625 C6.6015625,7.9609375 6.73307292,8.45703125 6.99609375,8.90234375 C7.25911458,9.34765625 7.61458333,9.70442708 8.0625,9.97265625 C8.51041667,10.2408854 9.0078125,10.375 9.5546875,10.375 Z" id="path-history"></path>
    </defs>
    <g id="Découpe" stroke="none" stroke-width="1" fill="none" fill-rule="evenodd">
        <g transform="translate(-333.000000, -574.000000)" id="history">
            <g transform="translate(333.000000, 573.000000)">
                <g id="Mask-2" transform="translate(3.000000, 7.000000)">
                    <mask id="mask-2" fill="white">
                        <use xlink:href="#path-history"></use>
                    </mask>
                    <use id="Mask" fill="#FFFFFF" fill-rule="nonzero" xlink:href="#path-history"></use>
                </g>
            </g>
        </g>
    </g>
</svg>