<?xml version="1.0" encoding="UTF-8"?>
<svg width="44px" height="44px" viewBox="0 0 44 44" version="1.1" xmlns="http://www.w3.org/2000/svg" xmlns:xlink="http://www.w3.org/1999/xlink">
    <title>BDFC27B8-6FED-45FC-9C1B-6C912ADE6773@3x</title>
    <defs>
        <path d="M3,5.33333333 C4.28333333,5.33333333 5.33333333,4.28333333 5.33333333,3 C5.33333333,1.71666667 4.28333333,0.666666667 3,0.666666667 C1.71666667,0.666666667 0.666666667,1.71666667 0.666666667,3 C0.666666667,4.28333333 1.71666667,5.33333333 3,5.33333333 Z M3,7.66666667 C1.71666667,7.66666667 0.666666667,8.71666667 0.666666667,10 C0.666666667,11.2833333 1.71666667,12.3333333 3,12.3333333 C4.28333333,12.3333333 5.33333333,11.2833333 5.33333333,10 C5.33333333,8.71666667 4.28333333,7.66666667 3,7.66666667 Z M3,14.6666667 C1.71666667,14.6666667 0.666666667,15.7166667 0.666666667,17 C0.666666667,18.2833333 1.71666667,19.3333333 3,19.3333333 C4.28333333,19.3333333 5.33333333,18.2833333 5.33333333,17 C5.33333333,15.7166667 4.28333333,14.6666667 3,14.6666667 Z" id="path-more"></path>
    </defs>
    <g id="Découpe" stroke="none" stroke-width="1" fill="none" fill-rule="evenodd">
        <g transform="translate(-273.000000, -214.000000)" id="plusdots">
            <g transform="translate(274.000000, 215.000000)">
                <circle id="Oval" fill="#F5F7F7" cx="21" cy="21" r="21"></circle>
                <g transform="translate(18.000000, 11.000000)">
                    <mask id="mask-2" fill="white">
                        <use xlink:href="#path-more"></use>
                    </mask>
                    <use id="Icon/navigation/more_vert_24px" fill="#439DFF" xlink:href="#path-more"></use>
                </g>
            </g>
        </g>
    </g>
</svg>