<?xml version="1.0" encoding="UTF-8"?>
<svg width="20px" height="10px" viewBox="0 0 20 10" version="1.1" xmlns="http://www.w3.org/2000/svg" xmlns:xlink="http://www.w3.org/1999/xlink">
    <title>profiles</title>
    <g id="Symbols" stroke="none" stroke-width="1" fill="none" fill-rule="evenodd">
        <path d="M10.005596,4.85345838 C10.3898526,4.85345838 10.7433315,4.74501758 11.0660325,4.52813599 C11.3887334,4.3112544 11.6470808,4.01719422 11.8410744,3.64595545 C12.0350681,3.27471669 12.1320649,2.8565846 12.1320649,2.3915592 C12.1320649,1.94216491 12.0350681,1.5367331 11.8410744,1.17526377 C11.6470808,0.813794451 11.3878008,0.527549824 11.0632345,0.316529894 C10.7386682,0.105509965 10.386122,0 10.005596,0 C9.62506995,0 9.27345644,0.106486909 8.95075546,0.319460727 C8.62805447,0.532434545 8.36877448,0.82063306 8.1729155,1.18405627 C7.97705652,1.54747948 7.87912703,1.95388824 7.87912703,2.40328253 C7.87912703,2.86049238 7.97705652,3.27471669 8.1729155,3.64595545 C8.36877448,4.01719422 8.62805447,4.3112544 8.95075546,4.52813599 C9.27345644,4.74501758 9.62506995,4.85345838 10.005596,4.85345838 Z M3.88919978,4.97655334 C4.22122738,4.97655334 4.52807312,4.88276671 4.80973699,4.69519343 C5.09140086,4.50762016 5.31710502,4.25166081 5.48684947,3.92731536 C5.65659392,3.60296991 5.74146614,3.2395467 5.74146614,2.83704572 C5.74146614,2.4423603 5.65659392,2.08772958 5.48684947,1.77315358 C5.31710502,1.45857757 5.09140086,1.21043376 4.80973699,1.02872216 C4.52807312,0.847010551 4.22122738,0.756154748 3.88919978,0.756154748 C3.56090282,0.756154748 3.2559224,0.847987495 2.97425853,1.03165299 C2.69259467,1.21531848 2.46595784,1.46541618 2.29434807,1.78194607 C2.1227383,2.09847597 2.03693341,2.45408363 2.03693341,2.84876905 C2.03693341,3.24736225 2.12180563,3.60785463 2.29155008,3.93024619 C2.46129453,4.25263775 2.68699869,4.50762016 2.96866256,4.69519343 C3.25032643,4.88276671 3.55717217,4.97655334 3.88919978,4.97655334 Z M16.1052043,4.97655334 C16.4372319,4.97655334 16.7440776,4.88276671 17.0257415,4.69519343 C17.3074053,4.50762016 17.5340422,4.25263775 17.7056519,3.93024619 C17.8772617,3.60785463 17.9630666,3.24736225 17.9630666,2.84876905 C17.9630666,2.45408363 17.8772617,2.09847597 17.7056519,1.78194607 C17.5340422,1.46541618 17.3074053,1.21531848 17.0257415,1.03165299 C16.7440776,0.847987495 16.4372319,0.756154748 16.1052043,0.756154748 C15.7731766,0.756154748 15.4672636,0.847010551 15.187465,1.02872216 C14.9076665,1.21043376 14.6819623,1.45857757 14.5103525,1.77315358 C14.3387428,2.08772958 14.2529379,2.4423603 14.2529379,2.83704572 C14.2529379,3.2395467 14.3378101,3.60296991 14.5075546,3.92731536 C14.677299,4.25166081 14.9030032,4.50762016 15.184667,4.69519343 C15.4663309,4.88276671 15.7731766,4.97655334 16.1052043,4.97655334 Z M4.95243425,10 C4.81066965,9.79288785 4.74072001,9.54083626 4.74258534,9.24384525 C4.74445066,8.94685424 4.80600634,8.63423212 4.92725238,8.3059789 C5.04849841,7.97772567 5.21824287,7.65826495 5.43648573,7.34759672 C5.6547286,7.03692849 5.9112106,6.76240719 6.20593173,6.52403283 C5.90747995,6.32082845 5.56799105,6.153771 5.18746503,6.02286049 C4.806939,5.89194998 4.37418392,5.82649472 3.88919978,5.82649472 C3.29229621,5.82649472 2.75508301,5.92809691 2.27756016,6.13130129 C1.80003731,6.33450567 1.39153143,6.60218835 1.05204253,6.93434936 C0.712553628,7.26651036 0.452340981,7.62895662 0.271404589,8.02168816 C0.0904681962,8.4144197 0,8.80031262 0,9.17936694 C0,9.44118796 0.0727476217,9.6434154 0.218242865,9.78604924 C0.363738109,9.92868308 0.611826152,10 0.962506995,10 L4.95243425,10 Z M19.037493,10 C19.3844432,10 19.6315986,9.92868308 19.7789591,9.78604924 C19.9263197,9.6434154 20,9.44118796 20,9.17936694 C20,8.80031262 19.9095318,8.4144197 19.7285954,8.02168816 C19.547659,7.62895662 19.2865137,7.26651036 18.9451595,6.93434936 C18.6038053,6.60218835 18.1943667,6.33450567 17.7168439,6.13130129 C17.239321,5.92809691 16.7021078,5.82649472 16.1052043,5.82649472 C15.6202201,5.82649472 15.1865324,5.89194998 14.804141,6.02286049 C14.4217497,6.153771 14.0850588,6.32082845 13.7940683,6.52403283 C14.0887894,6.76240719 14.3443387,7.03692849 14.5607163,7.34759672 C14.7770938,7.65826495 14.9468383,7.97772567 15.0699496,8.3059789 C15.193061,8.63423212 15.2555493,8.94685424 15.2574147,9.24384525 C15.25928,9.54083626 15.1893303,9.79288785 15.0475658,10 L19.037493,10 Z M13.3128148,10 C13.7381086,10 14.037493,9.93552169 14.2109681,9.80656506 C14.3844432,9.67760844 14.4711807,9.48808128 14.4711807,9.23798359 C14.4711807,8.87846815 14.3667226,8.50234467 14.1578064,8.10961313 C13.9488901,7.71688159 13.651371,7.34857366 13.265249,7.00468933 C12.879127,6.660805 12.4109308,6.38139898 11.8606603,6.16647128 C11.3103899,5.95154357 10.6920351,5.84407972 10.005596,5.84407972 C9.31915687,5.84407972 8.70080209,5.95154357 8.15053162,6.16647128 C7.60026115,6.38139898 7.13113225,6.660805 6.74314494,7.00468933 C6.35515762,7.34857366 6.0576385,7.71688159 5.85058758,8.10961313 C5.64353665,8.50234467 5.54001119,8.87846815 5.54001119,9.23798359 C5.54001119,9.48808128 5.62581608,9.67760844 5.79742585,9.80656506 C5.96903563,9.93552169 6.26748741,10 6.6927812,10 L13.3128148,10 Z" id="profiles" fill="white" fill-rule="nonzero"></path>
    </g>
</svg>