<?xml version="1.0" encoding="UTF-8"?>
<svg width="22px" height="16px" viewBox="0 0 22 16" version="1.1" xmlns="http://www.w3.org/2000/svg" xmlns:xlink="http://www.w3.org/1999/xlink">
    <!-- Generator: sketchtool 59.1 (101010) - https://sketch.com -->
    <title>E26302BE-1879-46C0-8155-B3C6833DFD07@3x</title>
    <desc>Created with sketchtool.</desc>
    <defs>
        <path d="M19,8 L15,12 L18,12 C18,15.31 15.31,18 12,18 C10.99,18 10.03,17.75 9.2,17.3 L7.74,18.76 C8.97,19.54 10.43,20 12,20 C16.42,20 20,16.42 20,12 L23,12 L19,8 Z M6,12 C6,8.69 8.69,6 12,6 C13.01,6 13.97,6.25 14.8,6.7 L16.26,5.24 C15.03,4.46 13.57,4 12,4 C7.58,4 4,7.58 4,12 L1,12 L5,16 L9,12 L6,12 Z" id="path-running"></path>
    </defs>
    <g id="Découpe" stroke="none" stroke-width="1" fill="none" fill-rule="evenodd">
        <g transform="translate(-191.000000, -880.000000)" id="Icon/Running">
            <g transform="translate(190.000000, 876.000000)">
                <mask id="mask-2" fill="white">
                    <use xlink:href="#path-running"></use>
                </mask>
                <use id="-↳Color" fill="currentColor" fill-rule="nonzero" xlink:href="#path-running"></use>
            </g>
        </g>
    </g>
</svg>
