<?xml version="1.0" encoding="UTF-8"?>
<svg width="24px" height="24px" viewBox="0 0 24 24" version="1.1" xmlns="http://www.w3.org/2000/svg" xmlns:xlink="http://www.w3.org/1999/xlink">
    <!-- Generator: sketchtool 58 (101010) - https://sketch.com -->
    <title>3FF4484B-018B-4DBE-9808-293A9F776F40@3x</title>
    <desc>Created with sketchtool.</desc>
    <defs>
        <path d="M20.5833407,18.4620203 C21.1691271,19.0478068 21.1691271,19.9975542 20.5833407,20.5833407 C19.9975542,21.1691271 19.0478068,21.1691271 18.4620203,20.5833407 L13.6360712,15.7573915 C12.4215854,16.5618928 10.9934112,17 9.5,17 C5.35786438,17 2,13.6421356 2,9.5 C2,5.35786438 5.35786438,2 9.5,2 C13.6421356,2 17,5.35786438 17,9.5 C17,10.9934112 16.5618928,12.4215854 15.7573915,13.6360712 L20.5833407,18.4620203 Z M9.5,14 C11.9852814,14 14,11.9852814 14,9.5 C14,7.01471863 11.9852814,5 9.5,5 C7.01471863,5 5,7.01471863 5,9.5 C5,11.9852814 7.01471863,14 9.5,14 Z" id="path-search"></path>
    </defs>
    <g id="Découpe" stroke="none" stroke-width="1" fill="none" fill-rule="evenodd">
        <g transform="translate(-190.000000, -609.000000)" id="search-Icon/Search">
            <g transform="translate(190.000000, 609.000000)">
                <mask id="mask-2" fill="white">
                    <use xlink:href="#path-search"></use>
                </mask>
                <use id="Mask" fill="currentColor" xlink:href="#path-search"></use>
            </g>
        </g>
    </g>
</svg>
