<svg width="24px" height="24px" viewBox="0 0 24 24" version="1.1" xmlns="http://www.w3.org/2000/svg" xmlns:xlink="http://www.w3.org/1999/xlink">
    <defs>
        <path d="M2.95698686,11.7809245 C3.30655185,11.7809245 3.57921254,11.6783854 3.77496893,11.4733073 C3.97072532,11.2682292 4.11987305,11.0107422 4.22241211,10.7008464 L7.15875799,1.53385417 L14.0381969,1.53385417 C14.2525968,1.53385417 14.4250488,1.47347005 14.5555531,1.35270182 C14.6860574,1.23193359 14.7513095,1.07128906 14.7513095,0.870768229 C14.7513095,0.679361979 14.6860574,0.52327474 14.5555531,0.40250651 C14.4250488,0.281738281 14.2525968,0.221354167 14.0381969,0.221354167 L7.13079279,0.221354167 C6.75326261,0.221354167 6.46894975,0.295410156 6.27785423,0.443522135 C6.0867587,0.591634115 5.93761097,0.827473958 5.83041104,1.15104167 L3.03389116,10.1197917 L2.90804776,10.1197917 L1.69855291,5.95670573 C1.64262251,5.76074219 1.55872692,5.61376953 1.44686612,5.51578776 C1.33500533,5.41780599 1.18818803,5.3688151 1.00641424,5.3688151 C0.810657848,5.3688151 0.647527521,5.43147786 0.51702326,5.55680339 C0.386518999,5.68212891 0.321266868,5.8359375 0.321266868,6.01822917 C0.321266868,6.08203125 0.329423384,6.14697266 0.345736417,6.21305339 C0.36204945,6.27913411 0.377197266,6.33951823 0.391179865,6.39420573 L1.75448331,10.7692057 C1.85236151,11.0654297 1.99335272,11.3081055 2.17745694,11.4972331 C2.36156117,11.6863607 2.62140447,11.7809245 2.95698686,11.7809245 Z M12.5979892,10.5094401 C12.7751021,10.5094401 12.9219194,10.4570312 13.0384411,10.3522135 C13.1549627,10.2473958 13.2132235,10.1129557 13.2132235,9.94889323 C13.2132235,9.8030599 13.161954,9.6640625 13.059415,9.53190104 L11.3255726,7.2281901 L13.0733975,4.91080729 C13.1759366,4.77864583 13.2272061,4.63736979 13.2272061,4.48697917 C13.2272061,4.33203125 13.1712757,4.20328776 13.059415,4.1007487 C12.9475542,3.99820964 12.8077282,3.9469401 12.639937,3.9469401 C12.5094327,3.9469401 12.3999023,3.97314453 12.3113459,4.02555339 C12.2227894,4.07796224 12.134233,4.1702474 12.0456765,4.30240885 L10.6264426,6.37369792 L10.5914862,6.37369792 L9.13030451,4.29557292 C9.03708718,4.16796875 8.9473655,4.07796224 8.86113947,4.02555339 C8.77491344,3.97314453 8.66421786,3.9469401 8.52905273,3.9469401 C8.35660067,3.9469401 8.2109486,4.00276693 8.0920965,4.11442057 C7.97324441,4.22607422 7.91381836,4.36165365 7.91381836,4.52115885 C7.91381836,4.67154948 7.96974876,4.81966146 8.08160955,4.96549479 L9.75253018,7.20084635 L7.99072266,9.56608073 C7.89284446,9.6936849 7.84390536,9.83268229 7.84390536,9.98307292 C7.84390536,10.1289062 7.89867054,10.2530924 8.00820091,10.3556315 C8.11773127,10.4581706 8.25639205,10.5094401 8.42418324,10.5094401 C8.5546875,10.5094401 8.66188743,10.4832357 8.74578303,10.4308268 C8.82967862,10.378418 8.92289595,10.2815755 9.02543501,10.1402995 L10.5005993,8.08268229 L10.5355558,8.08268229 L12.0037287,10.1402995 C12.1016069,10.2815755 12.1924938,10.378418 12.2763894,10.4308268 C12.360285,10.4832357 12.4674849,10.5094401 12.5979892,10.5094401 Z" id="path-variable"></path>
    </defs>
    <g id="Découpe" stroke="none" stroke-width="1" fill="none" fill-rule="evenodd">
        <g transform="translate(-364.000000, -745.000000)" id="Icon/menu-variable">
            <g transform="translate(364.000000, 745.000000)">
                <g id="Mask-2" transform="translate(5.000000, 6.000000)">
                    <mask id="mask-2" fill="white">
                        <use xlink:href="#path-variable"></use>
                    </mask>
                    <use id="Mask" fill="white" fill-rule="nonzero" xlink:href="#path-variable"></use>
                </g>
            </g>
        </g>
    </g>
</svg>