<?xml version="1.0" encoding="UTF-8"?>
<svg width="24px" height="24px" viewBox="0 0 24 24" version="1.1" xmlns="http://www.w3.org/2000/svg" xmlns:xlink="http://www.w3.org/1999/xlink">
    <!-- Generator: sketchtool 58 (101010) - https://sketch.com -->
    <title>E49A8356-4394-436D-B8DA-FFDF6F1DAB9D@3x</title>
    <desc>Created with sketchtool.</desc>
    <g id="Découpe" stroke="none" stroke-width="1" fill="none" fill-rule="evenodd">
        <g transform="translate(-191.000000, -399.000000)" fill="currentColor" id="wheelbarrow-Icon/Construction/WheelBarrow">
            <g transform="translate(191.000000, 399.000000)">
                <path d="M19.1428571,14.3331164 C18.0783333,14.3331164 17.1588095,14.9203135 16.667381,15.7785609 L14.8847619,15.3072922 L20.0671429,10.1681961 C20.392619,9.84591061 20.5714286,9.41714104 20.5714286,8.96121922 L20.5714286,8.9569693 C20.5714286,8.01561232 19.7992857,7.24991864 18.85,7.24991864 L7.26309524,7.24991864 L6.54452381,4.57742814 C6.2947619,3.64882091 5.44333333,3 4.47380952,3 L2.71428571,3 C2.3197619,3 2,3.31709115 2,3.70831977 C2,4.0995484 2.3197619,4.41663955 2.71428571,4.41663955 L4.47380952,4.41663955 C4.79714286,4.41663955 5.08071429,4.63291319 5.16404762,4.94268503 L7.68761905,14.3267415 L6.31333333,19.0965669 C6.2047619,19.4729208 6.42452381,19.8646216 6.80380952,19.9722862 C7.18333333,20.080423 7.57833333,19.8624966 7.68690476,19.4859066 L8.92261905,15.1967943 L16.2880952,17.1444376 C16.2878571,17.151993 16.2857143,17.1588401 16.2857143,17.1663955 C16.2857143,18.7287128 17.567381,19.9996746 19.1428571,19.9996746 C20.7183333,19.9996746 22,18.7287128 22,17.1663955 C22,15.6040782 20.7183333,14.3331164 19.1428571,14.3331164 Z M7.64428571,8.66655819 L18.85,8.66655819 C19.1119048,8.66655819 19.24,8.98530209 19.0571429,9.16663195 L13.29,14.8853697 L9.01190476,13.7544191 L7.64428571,8.66655819 Z M19.1428571,18.583035 C18.355,18.583035 17.7142857,17.9476722 17.7142857,17.1663955 C17.7142857,16.3851188 18.355,15.7497559 19.1428571,15.7497559 C19.9307143,15.7497559 20.5714286,16.3851188 20.5714286,17.1663955 C20.5714286,17.9476722 19.9307143,18.583035 19.1428571,18.583035 Z" id="Shape"></path>
            </g>
        </g>
    </g>
</svg>
