<?xml version="1.0" encoding="UTF-8"?>
<svg width="24px" height="24px" viewBox="0 0 24 24" version="1.1" xmlns="http://www.w3.org/2000/svg" xmlns:xlink="http://www.w3.org/1999/xlink">
    <!-- Generator: sketchtool 59.1 (101010) - https://sketch.com -->
    <title>659EAFEF-C996-44E9-93E9-E892A7075732@3x</title>
    <desc>Created with sketchtool.</desc>
    <g id="Découpe" stroke="none" stroke-width="1" fill="none" fill-rule="evenodd">
        <g transform="translate(-191.000000, -331.000000)" fill="currentColor" id="clock-Icon/Clock">
            <g transform="translate(191.000000, 331.000000)">
                <path d="M14.491862,15.855085 L11.0684679,13.3669533 C10.9431424,13.2741774 10.8709852,13.1293167 10.8709852,12.9757752 L10.8709852,6.35504435 C10.8709852,6.08865258 11.0885417,5.87109025 11.3549262,5.87109025 L12.6450738,5.87109025 C12.9109158,5.87109025 13.1290148,6.08865258 13.1290148,6.35504435 L13.1290148,12.0686325 L15.8226997,14.0283211 C16.0402561,14.1856604 16.0847439,14.4878605 15.9274089,14.7054228 L15.1694878,15.750373 C15.0121528,15.9635949 14.7094184,16.0124244 14.491862,15.855085 M12,20.0647261 C7.54416233,20.0647261 3.93522135,16.4556873 3.93522135,12.0002713 C3.93522135,7.54431273 7.54416233,3.93527385 12,3.93527385 C16.4558377,3.93527385 20.0642361,7.54431273 20.0642361,12.0002713 C20.0642361,16.4556873 16.4558377,20.0647261 12,20.0647261 M12,2 C6.47591146,2 2,6.47549033 2,12.0002713 C2,17.5245097 6.47591146,22 12,22 C17.5240885,22 22,17.5245097 22,12.0002713 C22,6.47549033 17.5240885,2 12,2" id="Fill-clock"></path>
            </g>
        </g>
    </g>
</svg>
