<?xml version="1.0" encoding="UTF-8"?>
<svg width="24px" height="24px" viewBox="0 0 24 24" version="1.1" xmlns="http://www.w3.org/2000/svg" xmlns:xlink="http://www.w3.org/1999/xlink">
    <!-- Generator: sketchtool 58 (101010) - https://sketch.com -->
    <title>B0CE8378-6FDA-4076-9F12-B37345EE7AF2@3x</title>
    <desc>Created with sketchtool.</desc>
    <defs>
        <path d="M5.41421356,2.58578644 L12,9.171 L18.5857864,2.58578644 C19.3257272,1.84584567 20.5012114,1.80690142 21.2869988,2.46895369 L21.4142136,2.58578644 C22.1952621,3.36683502 22.1952621,4.63316498 21.4142136,5.41421356 L21.4142136,5.41421356 L14.829,12 L21.4142136,18.5857864 C22.1952621,19.366835 22.1952621,20.633165 21.4142136,21.4142136 C20.633165,22.1952621 19.366835,22.1952621 18.5857864,21.4142136 L12,14.829 L5.41421356,21.4142136 C4.6742728,22.1541543 3.49878864,22.1930986 2.71300121,21.5310463 L2.58578644,21.4142136 C1.80473785,20.633165 1.80473785,19.366835 2.58578644,18.5857864 L2.58578644,18.5857864 L9.171,12 L2.58578644,5.41421356 C1.80473785,4.63316498 1.80473785,3.36683502 2.58578644,2.58578644 C3.36683502,1.80473785 4.63316498,1.80473785 5.41421356,2.58578644 Z" id="path-close"></path>
    </defs>
    <g id="Découpe" stroke="none" stroke-width="1" fill="none" fill-rule="evenodd">
        <g transform="translate(-191.000000, -365.000000)" id="close-Icon/Close">
            <g transform="translate(191.000000, 365.000000)">
                <mask id="mask-2" fill="white">
                    <use xlink:href="#path-close"></use>
                </mask>
                <use id="Combined-Shape" fill="currentColor" xlink:href="#path-close"></use>
            </g>
        </g>
    </g>
</svg>
