<svg width="24px" height="24px" viewBox="0 0 24 24" version="1.1" xmlns="http://www.w3.org/2000/svg" xmlns:xlink="http://www.w3.org/1999/xlink">
  <path d="M9.00530348,13.9814362 C9.11844431,13.9814362 9.22628167,13.9618955 9.32881556,13.9228139 C9.43134944,13.8837323 9.54272245,13.8120827 9.66293459,13.7078652 L13.0359458,10.7083537 C13.205657,10.5520274 13.2905127,10.3761602 13.2905127,10.1807523 C13.2905127,9.97883081 13.2127283,9.81273408 13.0571597,9.68246214 C12.901591,9.5521902 12.7177372,9.48705423 12.5055981,9.48705423 C12.2581025,9.48705423 12.0601061,9.56847419 11.9116087,9.73131412 L10.4584561,11.1480215 L9.79021803,11.8221788 L9.87507366,10.444553 L9.87507366,0.791402052 C9.87507366,0.582966943 9.79021803,0.398957824 9.62050678,0.239374695 C9.45079552,0.0797915649 9.24572775,0 9.00530348,0 C8.7648792,0 8.55981143,0.0797915649 8.39010018,0.239374695 C8.22038892,0.398957824 8.13553329,0.582966943 8.13553329,0.791402052 L8.13553329,10.444553 L8.22038892,11.8319492 L7.55215085,11.1480215 L6.09899823,9.73131412 C5.94342958,9.56847419 5.74543312,9.48705423 5.50500884,9.48705423 C5.28579847,9.48705423 5.10017678,9.5521902 4.94814378,9.68246214 C4.79611078,9.81273408 4.72009428,9.97883081 4.72009428,10.1807523 C4.72009428,10.3761602 4.80494991,10.5520274 4.97466117,10.7083537 L8.34767236,13.7078652 C8.4678845,13.8120827 8.57925751,13.8837323 8.6817914,13.9228139 C8.78432528,13.9618955 8.89216264,13.9814362 9.00530348,13.9814362 Z M14.7648792,20 C15.8397171,20 16.6476134,19.7524833 17.1885681,19.2574499 C17.7295227,18.7624165 18,18.0296369 18,17.0591109 L18,7.91402052 C18,6.94349454 17.7295227,6.20908647 17.1885681,5.71079629 C16.6476134,5.21250611 15.8397171,4.96336102 14.7648792,4.96336102 L12.0176783,4.96336102 L12.0176783,6.64386908 L14.6906305,6.64386908 C15.1644078,6.64386908 15.5321155,6.75948543 15.7937537,6.99071812 C16.0553919,7.22195082 16.186211,7.56879987 16.186211,8.03126527 L16.186211,16.9418661 C16.186211,17.3978179 16.0553919,17.7414102 15.7937537,17.9726429 C15.5321155,18.2038756 15.1644078,18.3194919 14.6906305,18.3194919 L3.30936948,18.3194919 C2.83559222,18.3194919 2.46965233,18.2038756 2.21154979,17.9726429 C1.95344726,17.7414102 1.82439599,17.3978179 1.82439599,16.9418661 L1.82439599,8.03126527 C1.82439599,7.56879987 1.95344726,7.22195082 2.21154979,6.99071812 C2.46965233,6.75948543 2.83559222,6.64386908 3.30936948,6.64386908 L5.9929287,6.64386908 L5.9929287,4.96336102 L3.2351208,4.96336102 C2.16735415,4.96336102 1.36122569,5.21087771 0.816735415,5.70591109 C0.272245138,6.20094447 0,6.93698095 0,7.91402052 L0,17.0591109 C0,18.0296369 0.272245138,18.7624165 0.816735415,19.2574499 C1.36122569,19.7524833 2.16735415,20 3.2351208,20 L14.7648792,20 Z" id="path-config"></path>
</svg>