<svg width="24px" height="24px" viewBox="0 0 24 24" version="1.1" xmlns="http://www.w3.org/2000/svg" xmlns:xlink="http://www.w3.org/1999/xlink">
    <defs>
        <path d="M9.2203125,17.5400391 C10.3921875,17.5400391 11.49375,17.3173828 12.525,16.8720703 C13.55625,16.4267578 14.465918,15.8115234 15.2540039,15.0263672 C16.0420898,14.2412109 16.6573242,13.3330078 17.099707,12.3017578 C17.5420898,11.2705078 17.7632813,10.1689453 17.7632813,8.99707031 C17.7632813,7.83105469 17.5420898,6.73095703 17.099707,5.69677734 C16.6573242,4.66259766 16.0435547,3.75292969 15.2583984,2.96777344 C14.4732422,2.18261719 13.5650391,1.56884766 12.5337891,1.12646484 C11.5025391,0.684082031 10.4009766,0.462890625 9.22910156,0.462890625 C8.99472656,0.462890625 8.81308594,0.528808594 8.68417969,0.660644531 C8.55527344,0.792480469 8.49082031,0.975585938 8.49082031,1.20996094 L8.49082031,4.33886719 C8.49082031,4.53808594 8.55380859,4.70654297 8.67978516,4.84423828 C8.80576172,4.98193359 8.96835938,5.05078125 9.16757813,5.05078125 C9.36679688,5.05078125 9.52646484,4.98193359 9.64658203,4.84423828 C9.76669922,4.70654297 9.82675781,4.53808594 9.82675781,4.33886719 L9.826,2.045 L9.88910522,2.04849243 C10.5982727,2.11276245 11.2703613,2.2800293 11.9053711,2.55029297 C12.7520508,2.91064453 13.4976563,3.41015625 14.1421875,4.04882812 C14.7867188,4.6875 15.2876953,5.43017578 15.6451172,6.27685547 C16.0025391,7.12353516 16.18125,8.03027344 16.18125,8.99707031 C16.18125,9.96386719 16.0025391,10.8676758 15.6451172,11.7084961 C15.2876953,12.5493164 14.7911133,13.2890625 14.1553711,13.9277344 C13.5196289,14.5664062 12.7813477,15.0673828 11.9405273,15.4306641 C11.099707,15.7939453 10.1929688,15.9755859 9.2203125,15.9755859 C8.259375,15.9755859 7.35703125,15.7939453 6.51328125,15.4306641 C5.66953125,15.0673828 4.92832031,14.5664062 4.28964844,13.9277344 C3.65097656,13.2890625 3.15292969,12.5493164 2.79550781,11.7084961 C2.43808594,10.8676758 2.259375,9.96386719 2.259375,8.99707031 C2.26523438,8.15332031 2.40878906,7.35351562 2.69003906,6.59765625 C2.97128906,5.84179688 3.36386719,5.16210938 3.86777344,4.55859375 C4.00839844,4.37109375 4.08310547,4.17626953 4.09189453,3.97412109 C4.10068359,3.77197266 4.02597656,3.58886719 3.86777344,3.42480469 C3.70957031,3.26074219 3.51621094,3.18896484 3.28769531,3.20947266 C3.05917969,3.22998047 2.85703125,3.34570312 2.68125,3.55664062 C2.06015625,4.30078125 1.57089844,5.13720703 1.21347656,6.06591797 C0.856054688,6.99462891 0.67734375,7.97167969 0.67734375,8.99707031 C0.67734375,10.1689453 0.901464844,11.2705078 1.34970703,12.3017578 C1.79794922,13.3330078 2.41318359,14.2412109 3.19541016,15.0263672 C3.97763672,15.8115234 4.884375,16.4267578 5.915625,16.8720703 C6.946875,17.3173828 8.0484375,17.5400391 9.2203125,17.5400391 Z M9.80039063,10.7197266 C10.0699219,10.6728516 10.3189453,10.5380859 10.5474609,10.3154297 C10.7701172,10.0810547 10.9063477,9.82763672 10.9561523,9.55517578 C11.005957,9.28271484 10.9722656,9.01757812 10.8550781,8.75976562 C10.7378906,8.50195312 10.5445313,8.28222656 10.275,8.10058594 L5.97714844,5.12109375 C5.82480469,5.015625 5.68271484,4.98632812 5.55087891,5.03320312 C5.41904297,5.08007812 5.3296875,5.16943359 5.2828125,5.30126953 C5.2359375,5.43310547 5.26523438,5.57519531 5.37070313,5.72753906 L8.34140625,10.0253906 C8.52890625,10.2949219 8.7515625,10.4897461 9.009375,10.6098633 C9.2671875,10.7299805 9.53085938,10.7666016 9.80039063,10.7197266 Z" id="path-counter"></path>
    </defs>
    <g id="Découpe" stroke="none" stroke-width="1" fill="none" fill-rule="evenodd">
        <g transform="translate(-444.000000, -745.000000)" id="Icon/menu-timer">
            <g transform="translate(444.000000, 745.000000)">
                <g id="Mask-2" transform="translate(3.000000, 3.000000)">
                    <mask id="mask-2" fill="white">
                        <use xlink:href="#path-counter"></use>
                    </mask>
                    <use id="Mask" fill="white" fill-rule="nonzero" xlink:href="#path-counter"></use>
                </g>
            </g>
        </g>
    </g>
</svg>