<?xml version="1.0" encoding="UTF-8"?>
<svg width="24px" height="24px" viewBox="0 0 24 24" version="1.1" xmlns="http://www.w3.org/2000/svg" xmlns:xlink="http://www.w3.org/1999/xlink">
    <title>BBB06082-4168-4AF8-8C52-8C2401653DD8@3x</title>
    <defs>
        <path d="M3.34863281,4.82519531 C3.81738281,4.82519531 4.18066406,4.69335938 4.43847656,4.4296875 C4.69628906,4.16601562 4.82519531,3.79394531 4.82519531,3.31347656 L4.82519531,1.51171875 C4.82519531,1.03710938 4.69628906,0.666503906 4.43847656,0.399902344 C4.18066406,0.133300781 3.81738281,0 3.34863281,0 L1.4765625,0 C1.01953125,0 0.659179688,0.133300781 0.395507812,0.399902344 C0.131835938,0.666503906 0,1.03710938 0,1.51171875 L0,3.31347656 C0,3.79394531 0.131835938,4.16601562 0.395507812,4.4296875 C0.659179688,4.69335938 1.01953125,4.82519531 1.4765625,4.82519531 L3.34863281,4.82519531 Z M9.26367188,4.82519531 C9.73242188,4.82519531 10.0957031,4.69335938 10.3535156,4.4296875 C10.6113281,4.16601562 10.7402344,3.79394531 10.7402344,3.31347656 L10.7402344,1.51171875 C10.7402344,1.03710938 10.6113281,0.666503906 10.3535156,0.399902344 C10.0957031,0.133300781 9.73242188,0 9.26367188,0 L7.39160156,0 C6.92871094,0 6.56835938,0.133300781 6.31054688,0.399902344 C6.05273438,0.666503906 5.92382812,1.03710938 5.92382812,1.51171875 L5.92382812,3.31347656 C5.92382812,3.79394531 6.05273438,4.16601562 6.31054688,4.4296875 C6.56835938,4.69335938 6.92871094,4.82519531 7.39160156,4.82519531 L9.26367188,4.82519531 Z M15.1962891,4.82519531 C15.6591797,4.82519531 16.0209961,4.69335938 16.2817383,4.4296875 C16.5424805,4.16601562 16.6728516,3.79394531 16.6728516,3.31347656 L16.6728516,1.51171875 C16.6728516,1.03710938 16.5424805,0.666503906 16.2817383,0.399902344 C16.0209961,0.133300781 15.6591797,0 15.1962891,0 L13.3242188,0 C12.8554688,0 12.4921875,0.133300781 12.234375,0.399902344 C11.9765625,0.666503906 11.8476562,1.03710938 11.8476562,1.51171875 L11.8476562,3.31347656 C11.8476562,3.79394531 11.9765625,4.16601562 12.234375,4.4296875 C12.4921875,4.69335938 12.8554688,4.82519531 13.3242188,4.82519531 L15.1962891,4.82519531 Z M3.1640625,3.60351562 L1.66113281,3.60351562 C1.51464844,3.60351562 1.40625,3.56542969 1.3359375,3.48925781 C1.265625,3.41308594 1.23046875,3.29882812 1.23046875,3.14648438 L1.23046875,1.66992188 C1.23046875,1.5234375 1.265625,1.41357422 1.3359375,1.34033203 C1.40625,1.26708984 1.51464844,1.23046875 1.66113281,1.23046875 L3.1640625,1.23046875 C3.3046875,1.23046875 3.41308594,1.26708984 3.48925781,1.34033203 C3.56542969,1.41357422 3.60351562,1.5234375 3.60351562,1.66992188 L3.60351562,3.14648438 C3.60351562,3.29882812 3.56542969,3.41308594 3.48925781,3.48925781 C3.41308594,3.56542969 3.3046875,3.60351562 3.1640625,3.60351562 Z M9.07910156,3.60351562 L7.57617188,3.60351562 C7.43554688,3.60351562 7.32861328,3.56542969 7.25537109,3.48925781 C7.18212891,3.41308594 7.14550781,3.29882812 7.14550781,3.14648438 L7.14550781,1.66992188 C7.14550781,1.5234375 7.18212891,1.41357422 7.25537109,1.34033203 C7.32861328,1.26708984 7.43554688,1.23046875 7.57617188,1.23046875 L9.07910156,1.23046875 C9.22558594,1.23046875 9.33544922,1.26708984 9.40869141,1.34033203 C9.48193359,1.41357422 9.51855469,1.5234375 9.51855469,1.66992188 L9.51855469,3.14648438 C9.51855469,3.29882812 9.48193359,3.41308594 9.40869141,3.48925781 C9.33544922,3.56542969 9.22558594,3.60351562 9.07910156,3.60351562 Z M15.0029297,3.60351562 L13.5,3.60351562 C13.359375,3.60351562 13.2509766,3.56542969 13.1748047,3.48925781 C13.0986328,3.41308594 13.0605469,3.29882812 13.0605469,3.14648438 L13.0605469,1.66992188 C13.0605469,1.5234375 13.0986328,1.41357422 13.1748047,1.34033203 C13.2509766,1.26708984 13.359375,1.23046875 13.5,1.23046875 L15.0029297,1.23046875 C15.1494141,1.23046875 15.2592773,1.26708984 15.3325195,1.34033203 C15.4057617,1.41357422 15.4423828,1.5234375 15.4423828,1.66992188 L15.4423828,3.14648438 C15.4423828,3.29882812 15.4057617,3.41308594 15.3325195,3.48925781 C15.2592773,3.56542969 15.1494141,3.60351562 15.0029297,3.60351562 Z M3.34863281,10.5732422 C3.81738281,10.5732422 4.18066406,10.4428711 4.43847656,10.1821289 C4.69628906,9.92138672 4.82519531,9.55078125 4.82519531,9.0703125 L4.82519531,7.25976562 C4.82519531,6.77929688 4.69628906,6.40869141 4.43847656,6.14794922 C4.18066406,5.88720703 3.81738281,5.75683594 3.34863281,5.75683594 L1.4765625,5.75683594 C1.01953125,5.75683594 0.659179688,5.88720703 0.395507812,6.14794922 C0.131835938,6.40869141 0,6.77929688 0,7.25976562 L0,9.0703125 C0,9.55078125 0.131835938,9.92138672 0.395507812,10.1821289 C0.659179688,10.4428711 1.01953125,10.5732422 1.4765625,10.5732422 L3.34863281,10.5732422 Z M9.26367188,10.5732422 C9.73242188,10.5732422 10.0957031,10.4428711 10.3535156,10.1821289 C10.6113281,9.92138672 10.7402344,9.55078125 10.7402344,9.0703125 L10.7402344,7.25976562 C10.7402344,6.77929688 10.6113281,6.40869141 10.3535156,6.14794922 C10.0957031,5.88720703 9.73242188,5.75683594 9.26367188,5.75683594 L7.39160156,5.75683594 C6.92871094,5.75683594 6.56835938,5.88720703 6.31054688,6.14794922 C6.05273438,6.40869141 5.92382812,6.77929688 5.92382812,7.25976562 L5.92382812,9.0703125 C5.92382812,9.55078125 6.05273438,9.92138672 6.31054688,10.1821289 C6.56835938,10.4428711 6.92871094,10.5732422 7.39160156,10.5732422 L9.26367188,10.5732422 Z M15.1962891,10.5732422 C15.6591797,10.5732422 16.0209961,10.4428711 16.2817383,10.1821289 C16.5424805,9.92138672 16.6728516,9.55078125 16.6728516,9.0703125 L16.6728516,7.25976562 C16.6728516,6.77929688 16.5424805,6.40869141 16.2817383,6.14794922 C16.0209961,5.88720703 15.6591797,5.75683594 15.1962891,5.75683594 L13.3242188,5.75683594 C12.8554688,5.75683594 12.4921875,5.88720703 12.234375,6.14794922 C11.9765625,6.40869141 11.8476562,6.77929688 11.8476562,7.25976562 L11.8476562,9.0703125 C11.8476562,9.55078125 11.9765625,9.92138672 12.234375,10.1821289 C12.4921875,10.4428711 12.8554688,10.5732422 13.3242188,10.5732422 L15.1962891,10.5732422 Z M3.1640625,9.3515625 L1.66113281,9.3515625 C1.51464844,9.3515625 1.40625,9.31347656 1.3359375,9.23730469 C1.265625,9.16113281 1.23046875,9.046875 1.23046875,8.89453125 L1.23046875,7.41796875 C1.23046875,7.27148438 1.265625,7.16015625 1.3359375,7.08398438 C1.40625,7.0078125 1.51464844,6.96972656 1.66113281,6.96972656 L3.1640625,6.96972656 C3.3046875,6.96972656 3.41308594,7.0078125 3.48925781,7.08398438 C3.56542969,7.16015625 3.60351562,7.27148438 3.60351562,7.41796875 L3.60351562,8.89453125 C3.60351562,9.046875 3.56542969,9.16113281 3.48925781,9.23730469 C3.41308594,9.31347656 3.3046875,9.3515625 3.1640625,9.3515625 Z M9.07910156,9.3515625 L7.57617188,9.3515625 C7.43554688,9.3515625 7.32861328,9.31347656 7.25537109,9.23730469 C7.18212891,9.16113281 7.14550781,9.046875 7.14550781,8.89453125 L7.14550781,7.41796875 C7.14550781,7.27148438 7.18212891,7.16015625 7.25537109,7.08398438 C7.32861328,7.0078125 7.43554688,6.96972656 7.57617188,6.96972656 L9.07910156,6.96972656 C9.22558594,6.96972656 9.33544922,7.0078125 9.40869141,7.08398438 C9.48193359,7.16015625 9.51855469,7.27148438 9.51855469,7.41796875 L9.51855469,8.89453125 C9.51855469,9.046875 9.48193359,9.16113281 9.40869141,9.23730469 C9.33544922,9.31347656 9.22558594,9.3515625 9.07910156,9.3515625 Z M15.0029297,9.3515625 L13.5,9.3515625 C13.359375,9.3515625 13.2509766,9.31347656 13.1748047,9.23730469 C13.0986328,9.16113281 13.0605469,9.046875 13.0605469,8.89453125 L13.0605469,7.41796875 C13.0605469,7.27148438 13.0986328,7.16015625 13.1748047,7.08398438 C13.2509766,7.0078125 13.359375,6.96972656 13.5,6.96972656 L15.0029297,6.96972656 C15.1494141,6.96972656 15.2592773,7.0078125 15.3325195,7.08398438 C15.4057617,7.16015625 15.4423828,7.27148438 15.4423828,7.41796875 L15.4423828,8.89453125 C15.4423828,9.046875 15.4057617,9.16113281 15.3325195,9.23730469 C15.2592773,9.31347656 15.1494141,9.3515625 15.0029297,9.3515625 Z M3.34863281,16.3300781 C3.81738281,16.3300781 4.18066406,16.1982422 4.43847656,15.9345703 C4.69628906,15.6708984 4.82519531,15.2988281 4.82519531,14.8183594 L4.82519531,13.0166016 C4.82519531,12.5361328 4.69628906,12.1640625 4.43847656,11.9003906 C4.18066406,11.6367188 3.81738281,11.5048828 3.34863281,11.5048828 L1.4765625,11.5048828 C1.01953125,11.5048828 0.659179688,11.6367188 0.395507812,11.9003906 C0.131835938,12.1640625 0,12.5361328 0,13.0166016 L0,14.8183594 C0,15.2988281 0.131835938,15.6708984 0.395507812,15.9345703 C0.659179688,16.1982422 1.01953125,16.3300781 1.4765625,16.3300781 L3.34863281,16.3300781 Z M9.26367188,16.3300781 C9.73242188,16.3300781 10.0957031,16.1982422 10.3535156,15.9345703 C10.6113281,15.6708984 10.7402344,15.2988281 10.7402344,14.8183594 L10.7402344,13.0166016 C10.7402344,12.5361328 10.6113281,12.1640625 10.3535156,11.9003906 C10.0957031,11.6367188 9.73242188,11.5048828 9.26367188,11.5048828 L7.39160156,11.5048828 C6.92871094,11.5048828 6.56835938,11.6367188 6.31054688,11.9003906 C6.05273438,12.1640625 5.92382812,12.5361328 5.92382812,13.0166016 L5.92382812,14.8183594 C5.92382812,15.2988281 6.05273438,15.6708984 6.31054688,15.9345703 C6.56835938,16.1982422 6.92871094,16.3300781 7.39160156,16.3300781 L9.26367188,16.3300781 Z M15.1962891,16.3300781 C15.6591797,16.3300781 16.0209961,16.1982422 16.2817383,15.9345703 C16.5424805,15.6708984 16.6728516,15.2988281 16.6728516,14.8183594 L16.6728516,13.0166016 C16.6728516,12.5361328 16.5424805,12.1640625 16.2817383,11.9003906 C16.0209961,11.6367188 15.6591797,11.5048828 15.1962891,11.5048828 L13.3242188,11.5048828 C12.8554688,11.5048828 12.4921875,11.6367188 12.234375,11.9003906 C11.9765625,12.1640625 11.8476562,12.5361328 11.8476562,13.0166016 L11.8476562,14.8183594 C11.8476562,15.2988281 11.9765625,15.6708984 12.234375,15.9345703 C12.4921875,16.1982422 12.8554688,16.3300781 13.3242188,16.3300781 L15.1962891,16.3300781 Z M3.1640625,15.0996094 L1.66113281,15.0996094 C1.51464844,15.0996094 1.40625,15.0615234 1.3359375,14.9853516 C1.265625,14.9091797 1.23046875,14.7949219 1.23046875,14.6425781 L1.23046875,13.1748047 C1.23046875,13.0224609 1.265625,12.9082031 1.3359375,12.8320312 C1.40625,12.7558594 1.51464844,12.7177734 1.66113281,12.7177734 L3.1640625,12.7177734 C3.3046875,12.7177734 3.41308594,12.7558594 3.48925781,12.8320312 C3.56542969,12.9082031 3.60351562,13.0224609 3.60351562,13.1748047 L3.60351562,14.6425781 C3.60351562,14.7949219 3.56542969,14.9091797 3.48925781,14.9853516 C3.41308594,15.0615234 3.3046875,15.0996094 3.1640625,15.0996094 Z M9.07910156,15.0996094 L7.57617188,15.0996094 C7.43554688,15.0996094 7.32861328,15.0615234 7.25537109,14.9853516 C7.18212891,14.9091797 7.14550781,14.7949219 7.14550781,14.6425781 L7.14550781,13.1748047 C7.14550781,13.0224609 7.18212891,12.9082031 7.25537109,12.8320312 C7.32861328,12.7558594 7.43554688,12.7177734 7.57617188,12.7177734 L9.07910156,12.7177734 C9.22558594,12.7177734 9.33544922,12.7558594 9.40869141,12.8320312 C9.48193359,12.9082031 9.51855469,13.0224609 9.51855469,13.1748047 L9.51855469,14.6425781 C9.51855469,14.7949219 9.48193359,14.9091797 9.40869141,14.9853516 C9.33544922,15.0615234 9.22558594,15.0996094 9.07910156,15.0996094 Z M15.0029297,15.0996094 L13.5,15.0996094 C13.359375,15.0996094 13.2509766,15.0615234 13.1748047,14.9853516 C13.0986328,14.9091797 13.0605469,14.7949219 13.0605469,14.6425781 L13.0605469,13.1748047 C13.0605469,13.0224609 13.0986328,12.9082031 13.1748047,12.8320312 C13.2509766,12.7558594 13.359375,12.7177734 13.5,12.7177734 L15.0029297,12.7177734 C15.1494141,12.7177734 15.2592773,12.7558594 15.3325195,12.8320312 C15.4057617,12.9082031 15.4423828,13.0224609 15.4423828,13.1748047 L15.4423828,14.6425781 C15.4423828,14.7949219 15.4057617,14.9091797 15.3325195,14.9853516 C15.2592773,15.0615234 15.1494141,15.0996094 15.0029297,15.0996094 Z" id="path-dashboard"></path>
    </defs>
    <g id="Découpe" stroke="none" stroke-width="1" fill="none" fill-rule="evenodd">
        <g transform="translate(-284.000000, -505.000000)" id="dashboard">
            <g transform="translate(284.000000, 505.000000)">
                <g id="Mask-2" transform="translate(4.000000, 4.000000)">
                    <mask id="mask-2" fill="white">
                        <use xlink:href="#path-dashboard"></use>
                    </mask>
                    <use id="Mask" fill="#FFFFFF" fill-rule="nonzero" xlink:href="#path-dashboard"></use>
                </g>
            </g>
        </g>
    </g>
</svg>