<?xml version="1.0" encoding="UTF-8"?>
<svg width="24px" height="24px" viewBox="0 0 24 24" version="1.1" xmlns="http://www.w3.org/2000/svg" xmlns:xlink="http://www.w3.org/1999/xlink">
    <title>A81DDDEC-9E82-4271-B3ED-78FABAE76D1E@3x</title>
    <defs>
        <path d="M1.8359375,12.5625 C2.03125,12.515625 2.03125,12.515625 2.1796875,12.375 L6.8,7.754 L11.421875,12.375 C11.5625,12.515625 11.5625,12.515625 11.7578125,12.5625 C11.953125,12.609375 11.953125,12.609375 12.1484375,12.5625 C12.34375,12.515625 12.34375,12.515625 12.4921875,12.3671875 C12.640625,12.21875 12.640625,12.21875 12.6875,12.0234375 C12.734375,11.828125 12.734375,11.828125 12.6875,11.6328125 C12.640625,11.4375 12.640625,11.4375 12.5,11.296875 L7.879,6.676 L12.5,2.0546875 C12.640625,1.9140625 12.640625,1.9140625 12.6875,1.71875 C12.734375,1.5234375 12.734375,1.5234375 12.6875,1.32421875 C12.640625,1.125 12.640625,1.125 12.4921875,0.984375 C12.34375,0.8359375 12.34375,0.8359375 12.1445312,0.7890625 C11.9453125,0.7421875 11.9453125,0.7421875 11.7539062,0.7890625 C11.5625,0.8359375 11.5625,0.8359375 11.421875,0.9765625 L6.8,5.598 L2.1796875,0.9765625 C2.03125,0.8359375 2.03125,0.8359375 1.8359375,0.7890625 C1.640625,0.7421875 1.640625,0.7421875 1.4453125,0.78515625 C1.25,0.828125 1.25,0.828125 1.1015625,0.984375 C0.9609375,1.1328125 0.9609375,1.1328125 0.9140625,1.328125 C0.8671875,1.5234375 0.8671875,1.5234375 0.9140625,1.71875 C0.9609375,1.9140625 0.9609375,1.9140625 1.1015625,2.0546875 L5.722,6.676 L1.1015625,11.296875 C0.9609375,11.4375 0.9609375,11.4375 0.91015625,11.6328125 C0.859375,11.828125 0.859375,11.828125 0.90625,12.0273438 C0.953125,12.2265625 0.953125,12.2265625 1.1015625,12.3671875 C1.25,12.515625 1.25,12.515625 1.4453125,12.5625 C1.640625,12.609375 1.640625,12.609375 1.8359375,12.5625 Z" id="path-defect"></path>
    </defs>
    <g id="Découpe" stroke="none" stroke-width="1" fill="none" fill-rule="evenodd">
        <g transform="translate(-333.000000, -507.000000)" id="defect">
            <g transform="translate(333.000000, 505.000000)">
                <g id="Mask-2" transform="translate(5.000000, 7.000000)">
                    <mask id="mask-2" fill="white">
                        <use xlink:href="#path-defect"></use>
                    </mask>
                    <use id="Mask" fill="#FFFFFF" fill-rule="nonzero" xlink:href="#path-defect"></use>
                </g>
            </g>
        </g>
    </g>
</svg>