<?xml version="1.0" encoding="UTF-8"?>
<svg width="24px" height="24px" viewBox="0 0 24 24" version="1.1" xmlns="http://www.w3.org/2000/svg" xmlns:xlink="http://www.w3.org/1999/xlink">
    <title>6CCCF86C-4960-48FC-9D10-87C955DF3003@3x</title>
    <defs>
        <path d="M15.675,14 C16.2805556,14 16.8458333,13.8962963 17.3708333,13.6888889 C17.8958333,13.4814815 18.3555556,13.1927928 18.75,12.8228228 C19.1444444,12.4528529 19.4513889,12.0254254 19.6708333,11.5405405 C19.8902778,11.0556557 20,10.5329329 20,9.97237237 C20,9.41181181 19.8986111,8.88348348 19.6958333,8.38738739 C19.4930556,7.89129129 19.2041667,7.45125125 18.8291667,7.06726727 C18.4541667,6.68328328 18.0083333,6.38198198 17.4916667,6.16336336 C17.4916667,5.26646647 17.3444444,4.44244244 17.05,3.69129129 C16.7555556,2.94014014 16.3444444,2.28848849 15.8166667,1.73633634 C15.2888889,1.18418418 14.6722222,0.756756757 13.9666667,0.454054054 C13.2611111,0.151351351 12.5,0 11.6833333,0 C10.9777778,0 10.3361111,0.114914915 9.75833333,0.344744745 C9.18055556,0.574574575 8.66527778,0.88008008 8.2125,1.26126126 C7.75972222,1.64244244 7.37222222,2.07127127 7.05,2.54774775 C6.55555556,2.40760761 6.06666667,2.38798799 5.58333333,2.48888889 C5.1,2.58978979 4.65972222,2.78878879 4.2625,3.08588589 C3.86527778,3.38298298 3.54444444,3.75575576 3.3,4.2042042 C3.05555556,4.65265265 2.925,5.15995996 2.90833333,5.72612613 C2.30833333,5.82702703 1.79166667,6.06106106 1.35833333,6.42822823 C0.925,6.7953954 0.590277778,7.25505506 0.354166667,7.80720721 C0.118055556,8.35935936 0,8.96336336 0,9.61921922 C0,10.2134134 0.122222222,10.7753754 0.366666667,11.3051051 C0.611111111,11.8348348 0.948611111,12.3015015 1.37916667,12.7051051 C1.80972222,13.1087087 2.31666667,13.424024 2.9,13.6510511 C3.48333333,13.8780781 4.11666667,13.9915916 4.8,13.9915916 L15.675,14 Z M15.6666667,12.5621622 L4.8,12.5537538 C4.16111111,12.5537538 3.5875,12.4192192 3.07916667,12.1501502 C2.57083333,11.8810811 2.17222222,11.5237237 1.88333333,11.0780781 C1.59444444,10.6324324 1.45,10.1461461 1.45,9.61921922 C1.45,9.08668669 1.55277778,8.60880881 1.75833333,8.18558559 C1.96388889,7.76236236 2.25972222,7.42742743 2.64583333,7.18078078 C3.03194444,6.93413413 3.5,6.81081081 4.05,6.81081081 C4.15555556,6.81081081 4.20555556,6.75475475 4.2,6.64264264 C4.19444444,5.84664665 4.35555556,5.22302302 4.68333333,4.77177177 C5.01111111,4.32052052 5.43055556,4.03463463 5.94166667,3.91411411 C6.45277778,3.79359359 6.98611111,3.82582583 7.54166667,4.01081081 C7.63611111,4.03883884 7.70555556,4.01081081 7.75,3.92672673 C8.00555556,3.46706707 8.31111111,3.04944945 8.66666667,2.67387387 C9.02222222,2.2982983 9.44722222,1.9997998 9.94166667,1.77837838 C10.4361111,1.55695696 11.0166667,1.44624625 11.6833333,1.44624625 C12.5222222,1.44624625 13.2666667,1.64804805 13.9166667,2.05165165 C14.5666667,2.45525526 15.0833333,2.98778779 15.4666667,3.64924925 C15.85,4.31071071 16.0638889,5.03103103 16.1083333,5.81021021 C16.1194444,6.00640641 16.1208333,6.21101101 16.1125,6.42402402 C16.1041667,6.63703704 16.0888889,6.84164164 16.0666667,7.03783784 C16.0611111,7.13873874 16.1055556,7.1975976 16.2,7.21441441 C16.9166667,7.36576577 17.4875,7.68668669 17.9125,8.17717718 C18.3375,8.66766767 18.55,9.26606607 18.55,9.97237237 C18.55,10.4488488 18.4236111,10.8832833 18.1708333,11.2756757 C17.9180556,11.6680681 17.5736111,11.9805806 17.1375,12.2132132 C16.7013889,12.4458458 16.2111111,12.5621622 15.6666667,12.5621622 Z M11.8833333,10.4810811 C12.0333333,10.4670671 12.1638889,10.4068068 12.275,10.3003003 C12.3861111,10.1993994 12.4472222,10.0704705 12.4583333,9.91351351 C12.4694444,9.75655656 12.4166667,9.61921922 12.3,9.5015015 L10.8166667,8.01321321 L12.3,6.52492492 C12.4166667,6.40720721 12.4680556,6.27127127 12.4541667,6.11711712 C12.4402778,5.96296296 12.3805556,5.83263263 12.275,5.72612613 C12.1694444,5.61961962 12.0402778,5.55795796 11.8875,5.54114114 C11.7347222,5.52432432 11.6,5.58038038 11.4833333,5.70930931 L10.0083333,7.18918919 L8.53333333,5.70930931 C8.41111111,5.58598599 8.275,5.53273273 8.125,5.54954955 C7.975,5.56636637 7.84722222,5.62522523 7.74166667,5.72612613 C7.63055556,5.82702703 7.56944444,5.95595596 7.55833333,6.11291291 C7.54722222,6.26986987 7.6,6.40720721 7.71666667,6.52492492 L9.19166667,8.01321321 L7.71666667,9.5015015 C7.6,9.61921922 7.54861111,9.75515516 7.5625,9.90930931 C7.57638889,10.0634635 7.63611111,10.1937938 7.74166667,10.3003003 C7.84166667,10.4068068 7.96805556,10.4670671 8.12083333,10.4810811 C8.27361111,10.4950951 8.41111111,10.4432432 8.53333333,10.3255255 L10.0083333,8.83723724 L11.4833333,10.3255255 C11.6,10.4432432 11.7333333,10.4950951 11.8833333,10.4810811 Z" id="path-degraded"></path>
    </defs>
    <g id="Découpe" stroke="none" stroke-width="1" fill="none" fill-rule="evenodd">
        <g transform="translate(-284.000000, -539.000000)" id="degraded">
            <g transform="translate(284.000000, 539.000000)">
                <g id="Mask-2" transform="translate(2.000000, 5.000000)">
                    <mask id="mask-2" fill="white">
                        <use xlink:href="#path-degraded"></use>
                    </mask>
                    <use id="Mask" fill="#FFFFFF" fill-rule="nonzero" xlink:href="#path-degraded"></use>
                </g>
            </g>
        </g>
    </g>
</svg>