<?xml version="1.0" encoding="UTF-8"?>
<svg width="24px" height="24px" viewBox="0 0 24 24" version="1.1" xmlns="http://www.w3.org/2000/svg" xmlns:xlink="http://www.w3.org/1999/xlink">
    <title>28A8D4CB-FE35-42AA-B46D-21E82EDD02A9@3x</title>
    <defs>
        <path d="M16.9804688,15.4248047 C17.8710938,15.4248047 18.5405273,15.2021484 18.9887695,14.7568359 C19.4370117,14.3115234 19.6611328,13.6523438 19.6611328,12.7792969 L19.6611328,2.64550781 C19.6611328,1.77246094 19.4370117,1.11328125 18.9887695,0.66796875 C18.5405273,0.22265625 17.8710938,0 16.9804688,0 L2.68066406,0 C1.79589844,0 1.12792969,0.221191406 0.676757812,0.663574219 C0.225585938,1.10595703 0,1.76660156 0,2.64550781 L0,12.7792969 C0,13.6582031 0.225585938,14.3188477 0.676757812,14.7612305 C1.12792969,15.2036133 1.79589844,15.4248047 2.68066406,15.4248047 L16.9804688,15.4248047 Z M16.9189453,13.921875 L2.7421875,13.921875 C2.34960938,13.921875 2.04638672,13.8164062 1.83251953,13.6054688 C1.61865234,13.3945312 1.51171875,13.0810547 1.51171875,12.6650391 L1.51171875,2.75976562 C1.51171875,2.34375 1.61865234,2.03027344 1.83251953,1.81933594 C2.04638672,1.60839844 2.34960938,1.50292969 2.7421875,1.50292969 L16.9189453,1.50292969 C17.3115234,1.50292969 17.6147461,1.60839844 17.8286133,1.81933594 C18.0424805,2.03027344 18.1494141,2.34375 18.1494141,2.75976562 L18.1488359,7.33914844 L16.1894531,7.33886719 C15.8789062,7.33886719 15.6679688,7.49121094 15.5566406,7.79589844 L14.9941406,9.38671875 L13.1396484,3.77929688 C13.0869141,3.62109375 12.9887695,3.515625 12.8452148,3.46289062 C12.7016602,3.41015625 12.5551758,3.41162109 12.4057617,3.46728516 C12.2563477,3.52294922 12.1464844,3.6328125 12.0761719,3.796875 L10.6259766,7.33886719 L8.72753906,7.33886719 C8.41113281,7.33886719 8.19726562,7.49121094 8.0859375,7.79589844 L7.5234375,9.38671875 L5.66894531,3.77929688 C5.61621094,3.62109375 5.51806641,3.515625 5.37451172,3.46289062 C5.23095703,3.41015625 5.08447266,3.41162109 4.93505859,3.46728516 C4.78564453,3.52294922 4.67578125,3.6328125 4.60546875,3.796875 L3.15527344,7.33886719 L1.52050781,7.33886719 L1.52050781,8.45507812 L3.52441406,8.45507812 C3.68847656,8.45507812 3.81884766,8.41699219 3.91552734,8.34082031 C4.01220703,8.26464844 4.09277344,8.15039062 4.15722656,7.99804687 L5.1328125,5.60742188 L6.98730469,11.5488281 C7.04003906,11.7070312 7.14257812,11.8125 7.29492188,11.8652344 C7.44726562,11.9179688 7.60107422,11.9150391 7.75634766,11.8564453 C7.91162109,11.7978516 8.015625,11.6865234 8.06835938,11.5224609 L9.04394531,8.45507812 L10.9423828,8.45507812 C11.1181641,8.45507812 11.2529297,8.41699219 11.3466797,8.34082031 C11.4404297,8.26464844 11.5195312,8.15039062 11.5839844,7.99804687 L12.6035156,5.60742188 L14.4580078,11.5488281 C14.5048828,11.7070312 14.605957,11.8125 14.7612305,11.8652344 C14.9165039,11.9179688 15.0717773,11.9150391 15.2270508,11.8564453 C15.3823242,11.7978516 15.4833984,11.6865234 15.5302734,11.5224609 L16.5146484,8.45507812 L18.1488359,8.45514844 L18.1494141,12.6650391 C18.1494141,13.0810547 18.0424805,13.3945312 17.8286133,13.6054688 C17.6147461,13.8164062 17.3115234,13.921875 16.9189453,13.921875 Z" id="path-diag"></path>
    </defs>
    <g id="Découpe" stroke="none" stroke-width="1" fill="none" fill-rule="evenodd">
        <g transform="translate(-284.000000, -709.000000)" id="diag">
            <g transform="translate(284.000000, 709.000000)">
                <g id="Mask-2" transform="translate(2.000000, 4.000000)">
                    <mask id="mask-2" fill="white">
                        <use xlink:href="#path-diag"></use>
                    </mask>
                    <use id="Mask" fill="#FFFFFF" fill-rule="nonzero" xlink:href="#path-diag"></use>
                </g>
            </g>
        </g>
    </g>
</svg>