<?xml version="1.0" encoding="UTF-8"?>
<svg width="24px" height="24px" viewBox="0 0 24 24" version="1.1" xmlns="http://www.w3.org/2000/svg" xmlns:xlink="http://www.w3.org/1999/xlink">
    <!-- Generator: sketchtool 60.1 (101010) - https://sketch.com -->
    <title>283F0E24-F552-4A04-8F58-9D2052EDDC9F@3x</title>
    <desc>Created with sketchtool.</desc>
    <defs>
        <path d="M12.7702703,0 L0.851351351,0 C0.381157095,0 2.39808173e-14,0.377753906 2.39808173e-14,0.84375 L2.39808173e-14,1.40625 C2.39808173e-14,1.87224609 0.381157095,2.25 0.851351351,2.25 C0.851351351,5.44798828 2.66104054,8.14689844 5.13797635,9 C2.66104054,9.85310156 0.851351351,12.5520117 0.851351351,15.75 C0.381157095,15.75 2.39808173e-14,16.1277539 2.39808173e-14,16.59375 L2.39808173e-14,17.15625 C2.39808173e-14,17.6222461 0.381157095,18 0.851351351,18 L12.7702703,18 C13.2404645,18 13.6216216,17.6222461 13.6216216,17.15625 L13.6216216,16.59375 C13.6216216,16.1277539 13.2404645,15.75 12.7702703,15.75 C12.7702703,12.5520117 10.9605811,9.85310156 8.48364527,9 C10.9605811,8.14689844 12.7702703,5.44798828 12.7702703,2.25 C13.2404645,2.25 13.6216216,1.87224609 13.6216216,1.40625 L13.6216216,0.84375 C13.6216216,0.377753906 13.2404645,0 12.7702703,0 Z M10.2162162,13.6216216 L3.40540541,13.6216216 C4.03059036,11.9141635 5.31464013,10.7027027 6.81077416,10.7027027 C8.30679825,10.7027027 9.59099462,11.9139081 10.2162162,13.6216216 Z M10.314718,4.37837838 L3.79405665,4.37837838 C3.54531705,3.63907095 3.40540541,2.81052365 3.40540541,1.94594595 L10.7027027,1.94594595 C10.7027027,2.81269003 10.5628261,3.64055321 10.314718,4.37837838 L10.314718,4.37837838 Z" id="path-dropsort"></path>
    </defs>
    <g id="Découpe" stroke="none" stroke-width="1" fill="none" fill-rule="evenodd">
        <g transform="translate(-190.000000, -813.000000)" id="icons/hourglass">
            <g transform="translate(195.000000, 816.000000)">
                <mask id="mask-2" fill="white">
                    <use xlink:href="#path-dropsort"></use>
                </mask>
                <use id="Mask" fill="currentColor" fill-rule="nonzero" xlink:href="#path-dropsort"></use>
            </g>
        </g>
    </g>
</svg>
