<?xml version="1.0" encoding="UTF-8"?>
<svg width="24px" height="24px" viewBox="0 0 24 24" version="1.1" xmlns="http://www.w3.org/2000/svg" xmlns:xlink="http://www.w3.org/1999/xlink">
    <title>EACDE262-9291-472D-A7CA-4C2884D55361@3x</title>
    <defs>
        <path d="M7.9140625,15.2578125 C8.95572917,15.2578125 9.93489583,15.0585938 10.8515625,14.6601562 C11.7682292,14.2617188 12.5755208,13.7135417 13.2734375,13.015625 C13.9713542,12.3177083 14.5182292,11.5117188 14.9140625,10.5976562 C15.3098958,9.68359375 15.5078125,8.70572917 15.5078125,7.6640625 C15.5078125,6.62239583 15.3098958,5.64453125 14.9140625,4.73046875 C14.5182292,3.81640625 13.9700521,3.00911458 13.2695312,2.30859375 C12.5690104,1.60807292 11.7604167,1.05989583 10.84375,0.6640625 C9.92708333,0.268229167 8.94791667,0.0703125 7.90625,0.0703125 C6.875,0.0703125 5.90104167,0.268229167 4.984375,0.6640625 C4.06770833,1.05989583 3.25911458,1.60807292 2.55859375,2.30859375 C1.85807292,3.00911458 1.30989583,3.81640625 0.9140625,4.73046875 C0.518229167,5.64453125 0.3203125,6.62239583 0.3203125,7.6640625 C0.3203125,8.70572917 0.51953125,9.68359375 0.91796875,10.5976562 C1.31640625,11.5117188 1.86458333,12.3177083 2.5625,13.015625 C3.26041667,13.7135417 4.06770833,14.2617188 4.984375,14.6601562 C5.90104167,15.0585938 6.87760417,15.2578125 7.9140625,15.2578125 Z M7.9140625,13.859375 C7.05989583,13.859375 6.2578125,13.6992188 5.5078125,13.3789062 C4.7578125,13.0585938 4.10026042,12.6158854 3.53515625,12.0507812 C2.97005208,11.4856771 2.52864583,10.828125 2.2109375,10.078125 C1.89322917,9.328125 1.734375,8.5234375 1.734375,7.6640625 C1.734375,6.80989583 1.89322917,6.0078125 2.2109375,5.2578125 C2.52864583,4.5078125 2.97005208,3.84895833 3.53515625,3.28125 C4.10026042,2.71354167 4.75651042,2.26953125 5.50390625,1.94921875 C6.25130208,1.62890625 7.05208333,1.46875 7.90625,1.46875 C8.77083333,1.46875 9.57682292,1.62890625 10.3242188,1.94921875 C11.0716146,2.26953125 11.7291667,2.71354167 12.296875,3.28125 C12.8645833,3.84895833 13.3085938,4.5078125 13.6289063,5.2578125 C13.9492188,6.0078125 14.109375,6.80989583 14.109375,7.6640625 C14.1145833,8.5234375 13.9557292,9.328125 13.6328125,10.078125 C13.3098958,10.828125 12.8671875,11.4856771 12.3046875,12.0507812 C11.7421875,12.6158854 11.0859375,13.0585938 10.3359375,13.3789062 C9.5859375,13.6992188 8.77864583,13.859375 7.9140625,13.859375 Z M7.90625,4.3828125 C8.11458333,4.3828125 8.29166667,4.30989583 8.4375,4.1640625 C8.58333333,4.01822917 8.65625,3.84375 8.65625,3.640625 C8.65625,3.4375 8.58333333,3.26302083 8.4375,3.1171875 C8.29166667,2.97135417 8.11458333,2.8984375 7.90625,2.8984375 C7.703125,2.8984375 7.52864583,2.97135417 7.3828125,3.1171875 C7.23697917,3.26302083 7.1640625,3.4375 7.1640625,3.640625 C7.1640625,3.84375 7.23697917,4.01822917 7.3828125,4.1640625 C7.52864583,4.30989583 7.703125,4.3828125 7.90625,4.3828125 Z M5.6796875,5.078125 C5.8828125,5.078125 6.05729167,5.00260417 6.203125,4.8515625 C6.34895833,4.70052083 6.421875,4.5234375 6.421875,4.3203125 C6.421875,4.1171875 6.34895833,3.94270833 6.203125,3.796875 C6.05729167,3.65104167 5.8828125,3.578125 5.6796875,3.578125 C5.47135417,3.578125 5.29427083,3.65104167 5.1484375,3.796875 C5.00260417,3.94270833 4.9296875,4.1171875 4.9296875,4.3203125 C4.9296875,4.5234375 5.00260417,4.70052083 5.1484375,4.8515625 C5.29427083,5.00260417 5.47135417,5.078125 5.6796875,5.078125 Z M10.0625,5.0703125 C10.2708333,5.0703125 10.4466146,4.99609375 10.5898438,4.84765625 C10.7330729,4.69921875 10.8046875,4.5234375 10.8046875,4.3203125 C10.8046875,4.1171875 10.7330729,3.94270833 10.5898438,3.796875 C10.4466146,3.65104167 10.2708333,3.578125 10.0625,3.578125 C9.85416667,3.578125 9.67708333,3.65104167 9.53125,3.796875 C9.38541667,3.94270833 9.3125,4.1171875 9.3125,4.3203125 C9.3125,4.5234375 9.38541667,4.69921875 9.53125,4.84765625 C9.67708333,4.99609375 9.85416667,5.0703125 10.0625,5.0703125 Z M4.25,6.671875 C4.45833333,6.671875 4.63541667,6.60026042 4.78125,6.45703125 C4.92708333,6.31380208 5,6.13802083 5,5.9296875 C5,5.7265625 4.92708333,5.55208333 4.78125,5.40625 C4.63541667,5.26041667 4.45833333,5.1875 4.25,5.1875 C4.046875,5.1875 3.87369792,5.26041667 3.73046875,5.40625 C3.58723958,5.55208333 3.515625,5.7265625 3.515625,5.9296875 C3.515625,6.13802083 3.58723958,6.31380208 3.73046875,6.45703125 C3.87369792,6.60026042 4.046875,6.671875 4.25,6.671875 Z M11.484375,6.6875 C11.6927083,6.6875 11.8684896,6.61458333 12.0117188,6.46875 C12.1549479,6.32291667 12.2265625,6.14583333 12.2265625,5.9375 C12.2265625,5.734375 12.1549479,5.55989583 12.0117188,5.4140625 C11.8684896,5.26822917 11.6927083,5.1953125 11.484375,5.1953125 C11.28125,5.1953125 11.1067708,5.26822917 10.9609375,5.4140625 C10.8151042,5.55989583 10.7421875,5.734375 10.7421875,5.9375 C10.7421875,6.14583333 10.8151042,6.32291667 10.9609375,6.46875 C11.1067708,6.61458333 11.28125,6.6875 11.484375,6.6875 Z M7.9140625,12.15625 C8.24739583,12.15625 8.53125,12.0390625 8.765625,11.8046875 C9,11.5703125 9.1171875,11.2838542 9.1171875,10.9453125 C9.1171875,10.7005208 9.05208333,10.4817708 8.921875,10.2890625 C8.79166667,10.0963542 8.62239583,9.95052083 8.4140625,9.8515625 L8.4140625,6.4765625 C8.4140625,6.33072917 8.36458333,6.20703125 8.265625,6.10546875 C8.16666667,6.00390625 8.04947917,5.953125 7.9140625,5.953125 C7.7734375,5.953125 7.65364583,6.00390625 7.5546875,6.10546875 C7.45572917,6.20703125 7.40625,6.33072917 7.40625,6.4765625 L7.40625,9.8515625 C7.203125,9.95052083 7.03645833,10.0963542 6.90625,10.2890625 C6.77604167,10.4817708 6.7109375,10.7005208 6.7109375,10.9453125 C6.7109375,11.2838542 6.828125,11.5703125 7.0625,11.8046875 C7.296875,12.0390625 7.58072917,12.15625 7.9140625,12.15625 Z" id="path-gauge"></path>
    </defs>
    <g id="Découpe" stroke="none" stroke-width="1" fill="none" fill-rule="evenodd">
        <g transform="translate(-333.000000, -609.000000)" id="gauge">
            <g transform="translate(333.000000, 608.000000)">
                <g id="Mask-2" transform="translate(4.000000, 5.000000)">
                    <mask id="mask-2" fill="white">
                        <use xlink:href="#path-gauge"></use>
                    </mask>
                    <use id="Mask" fill="#FFFFFF" fill-rule="nonzero" xlink:href="#path-gauge"></use>
                </g>
            </g>
        </g>
    </g>
</svg>