<?xml version="1.0" encoding="UTF-8"?>
<svg width="24px" height="24px" viewBox="0 0 24 24" version="1.1" xmlns="http://www.w3.org/2000/svg" xmlns:xlink="http://www.w3.org/1999/xlink">
    <title>FF9FD4A2-01C4-4348-B0E2-BC39A77B688B@3x</title>
    <defs>
        <path d="M17.2734375,13.9921875 C17.8776042,13.9921875 18.3372396,13.8424479 18.6523438,13.5429688 C18.9674479,13.2434896 19.125,12.8072917 19.125,12.234375 L19.125,1.7578125 C19.125,1.18489583 18.9674479,0.748697917 18.6523438,0.44921875 C18.3372396,0.149739583 17.8776042,0 17.2734375,0 L15.359375,0 C14.7552083,0 14.296875,0.149739583 13.984375,0.44921875 C13.671875,0.748697917 13.515625,1.18489583 13.515625,1.7578125 L13.515625,12.234375 C13.515625,12.8072917 13.671875,13.2434896 13.984375,13.5429688 C14.296875,13.8424479 14.7552083,13.9921875 15.359375,13.9921875 L17.2734375,13.9921875 Z M17.0546875,12.7578125 L15.578125,12.7578125 C15.3020833,12.7578125 15.1067708,12.7018229 14.9921875,12.5898438 C14.8776042,12.4778646 14.8203125,12.2864583 14.8203125,12.015625 L14.8203125,1.9765625 C14.8203125,1.70572917 14.8776042,1.51432292 14.9921875,1.40234375 C15.1067708,1.29036458 15.3020833,1.234375 15.578125,1.234375 L17.0546875,1.234375 C17.3307292,1.234375 17.5260417,1.29036458 17.640625,1.40234375 C17.7552083,1.51432292 17.8125,1.70572917 17.8125,1.9765625 L17.8125,12.015625 C17.8125,12.2864583 17.7552083,12.4778646 17.640625,12.5898438 C17.5260417,12.7018229 17.3307292,12.7578125 17.0546875,12.7578125 Z M10.515625,13.9921875 C11.1197917,13.9921875 11.5794271,13.8424479 11.8945312,13.5429688 C12.2096354,13.2434896 12.3671875,12.8072917 12.3671875,12.234375 L12.3671875,3.9140625 C12.3671875,3.34114583 12.2096354,2.90625 11.8945312,2.609375 C11.5794271,2.3125 11.1197917,2.1640625 10.515625,2.1640625 L8.6015625,2.1640625 C7.99739583,2.1640625 7.5390625,2.3125 7.2265625,2.609375 C6.9140625,2.90625 6.7578125,3.34114583 6.7578125,3.9140625 L6.7578125,12.234375 C6.7578125,12.8072917 6.9140625,13.2434896 7.2265625,13.5429688 C7.5390625,13.8424479 7.99739583,13.9921875 8.6015625,13.9921875 L10.515625,13.9921875 Z M10.3046875,12.7578125 L8.8203125,12.7578125 C8.54427083,12.7578125 8.34895833,12.7018229 8.234375,12.5898438 C8.11979167,12.4778646 8.0625,12.2864583 8.0625,12.015625 L8.0625,4.1328125 C8.0625,3.86197917 8.11979167,3.67057292 8.234375,3.55859375 C8.34895833,3.44661458 8.54427083,3.390625 8.8203125,3.390625 L10.3046875,3.390625 C10.5807292,3.390625 10.7760417,3.44661458 10.890625,3.55859375 C11.0052083,3.67057292 11.0625,3.86197917 11.0625,4.1328125 L11.0625,12.015625 C11.0625,12.2864583 11.0052083,12.4778646 10.890625,12.5898438 C10.7760417,12.7018229 10.5807292,12.7578125 10.3046875,12.7578125 Z M3.7578125,13.9921875 C4.36197917,13.9921875 4.82291667,13.8424479 5.140625,13.5429688 C5.45833333,13.2434896 5.6171875,12.8072917 5.6171875,12.234375 L5.6171875,6.0703125 C5.6171875,5.49739583 5.45833333,5.06119792 5.140625,4.76171875 C4.82291667,4.46223958 4.36197917,4.3125 3.7578125,4.3125 L1.8515625,4.3125 C1.2421875,4.3125 0.78125,4.46223958 0.46875,4.76171875 C0.15625,5.06119792 0,5.49739583 0,6.0703125 L0,12.234375 C0,12.8072917 0.15625,13.2434896 0.46875,13.5429688 C0.78125,13.8424479 1.2421875,13.9921875 1.8515625,13.9921875 L3.7578125,13.9921875 Z M3.546875,12.7578125 L2.0703125,12.7578125 C1.79427083,12.7578125 1.59895833,12.7018229 1.484375,12.5898438 C1.36979167,12.4778646 1.3125,12.2864583 1.3125,12.015625 L1.3125,6.2890625 C1.3125,6.01822917 1.36979167,5.82552083 1.484375,5.7109375 C1.59895833,5.59635417 1.79427083,5.5390625 2.0703125,5.5390625 L3.546875,5.5390625 C3.82291667,5.5390625 4.01822917,5.59635417 4.1328125,5.7109375 C4.24739583,5.82552083 4.3046875,6.01822917 4.3046875,6.2890625 L4.3046875,12.015625 C4.3046875,12.2864583 4.24739583,12.4778646 4.1328125,12.5898438 C4.01822917,12.7018229 3.82291667,12.7578125 3.546875,12.7578125 Z" id="path-graphVar"></path>
    </defs>
    <g id="Découpe" stroke="none" stroke-width="1" fill="none" fill-rule="evenodd">
        <g transform="translate(-333.000000, -539.000000)" id="graphVar">
            <g transform="translate(333.000000, 538.000000)">
                <g id="Mask-2" transform="translate(2.000000, 6.000000)">
                    <mask id="mask-2" fill="white">
                        <use xlink:href="#path-graphVar"></use>
                    </mask>
                    <use id="Mask" fill="#FFFFFF" fill-rule="nonzero" xlink:href="#path-graphVar"></use>
                </g>
            </g>
        </g>
    </g>
</svg>