<?xml version="1.0" encoding="UTF-8"?>
<svg width="24px" height="24px" viewBox="0 0 24 24" version="1.1" xmlns="http://www.w3.org/2000/svg" xmlns:xlink="http://www.w3.org/1999/xlink">
    <title>6D221F66-27FE-40BC-82AE-E6E51F26A6AF@3x</title>
    <defs>
        <path d="M4.27148438,8.52539062 C4.84570312,8.52539062 5.38916016,8.41259766 5.90185547,8.18701172 C6.41455078,7.96142578 6.8671875,7.65234375 7.25976562,7.25976562 C7.65234375,6.8671875 7.95996094,6.41455078 8.18261719,5.90185547 C8.40527344,5.38916016 8.51660156,4.84277344 8.51660156,4.26269531 C8.51660156,3.67675781 8.40673828,3.12744141 8.18701172,2.61474609 C7.96728516,2.10205078 7.66259766,1.64941406 7.27294922,1.25683594 C6.88330078,0.864257812 6.43066406,0.556640625 5.91503906,0.333984375 C5.39941406,0.111328125 4.8515625,0 4.27148438,0 C3.68554688,0 3.13623047,0.112792969 2.62353516,0.338378906 C2.11083984,0.563964844 1.65820312,0.871582031 1.265625,1.26123047 C0.873046875,1.65087891 0.565429688,2.10205078 0.342773438,2.61474609 C0.120117188,3.12744141 0.0087890625,3.67675781 0.0087890625,4.26269531 C0.0087890625,4.84863281 0.120117188,5.39794922 0.342773438,5.91064453 C0.565429688,6.42333984 0.873046875,6.87597656 1.265625,7.26855469 C1.65820312,7.66113281 2.11083984,7.96875 2.62353516,8.19140625 C3.13623047,8.4140625 3.68554688,8.52539062 4.27148438,8.52539062 Z M16.2949219,2.69824219 C16.4824219,2.69824219 16.6435547,2.63232422 16.7783203,2.50048828 C16.9130859,2.36865234 16.9804688,2.20605469 16.9804688,2.01269531 C16.9804688,1.81933594 16.9130859,1.65673828 16.7783203,1.52490234 C16.6435547,1.39306641 16.4824219,1.32714844 16.2949219,1.32714844 L10.4941406,1.32714844 C10.3007812,1.32714844 10.1367188,1.39306641 10.0019531,1.52490234 C9.8671875,1.65673828 9.79980469,1.81933594 9.79980469,2.01269531 C9.79980469,2.20605469 9.8671875,2.36865234 10.0019531,2.50048828 C10.1367188,2.63232422 10.3007812,2.69824219 10.4941406,2.69824219 L16.2949219,2.69824219 Z M3.77050781,6.76757812 C3.69433594,6.76757812 3.61376953,6.75292969 3.52880859,6.72363281 C3.44384766,6.69433594 3.375,6.64746094 3.32226562,6.58300781 L1.74023438,4.8515625 C1.69921875,4.81640625 1.66845703,4.76367188 1.64794922,4.69335938 C1.62744141,4.62304688 1.6171875,4.55566406 1.6171875,4.49121094 C1.6171875,4.32128906 1.67285156,4.18359375 1.78417969,4.078125 C1.89550781,3.97265625 2.02734375,3.91992188 2.1796875,3.91992188 C2.2734375,3.91992188 2.35546875,3.9375 2.42578125,3.97265625 C2.49609375,4.0078125 2.5546875,4.05175781 2.6015625,4.10449219 L3.74414062,5.34375 L5.88867188,2.35546875 C6.01171875,2.19140625 6.16992188,2.109375 6.36328125,2.109375 C6.515625,2.109375 6.64892578,2.16210938 6.76318359,2.26757812 C6.87744141,2.37304688 6.93457031,2.5078125 6.93457031,2.671875 C6.93457031,2.71875 6.92431641,2.77148438 6.90380859,2.83007812 C6.88330078,2.88867188 6.85253906,2.94433594 6.81152344,2.99707031 L4.23632812,6.55664062 C4.13671875,6.69726562 3.98144531,6.76757812 3.77050781,6.76757812 Z M16.2949219,7.05761719 C16.4824219,7.05761719 16.6435547,6.99169922 16.7783203,6.85986328 C16.9130859,6.72802734 16.9804688,6.56542969 16.9804688,6.37207031 C16.9804688,6.17871094 16.9130859,6.01464844 16.7783203,5.87988281 C16.6435547,5.74511719 16.4824219,5.67773438 16.2949219,5.67773438 L10.4941406,5.67773438 C10.3007812,5.67773438 10.1367188,5.74511719 10.0019531,5.87988281 C9.8671875,6.01464844 9.79980469,6.17871094 9.79980469,6.37207031 C9.79980469,6.56542969 9.8671875,6.72802734 10.0019531,6.85986328 C10.1367188,6.99169922 10.3007812,7.05761719 10.4941406,7.05761719 L16.2949219,7.05761719 Z M16.2949219,11.4169922 C16.4824219,11.4169922 16.6435547,11.3496094 16.7783203,11.2148438 C16.9130859,11.0800781 16.9804688,10.9160156 16.9804688,10.7226562 C16.9804688,10.5292969 16.9130859,10.3666992 16.7783203,10.2348633 C16.6435547,10.1030273 16.4824219,10.0371094 16.2949219,10.0371094 L0.694335938,10.0371094 C0.500976562,10.0371094 0.336914062,10.1030273 0.202148438,10.2348633 C0.0673828125,10.3666992 0,10.5292969 0,10.7226562 C0,10.9160156 0.0673828125,11.0800781 0.202148438,11.2148438 C0.336914062,11.3496094 0.500976562,11.4169922 0.694335938,11.4169922 L16.2949219,11.4169922 Z M16.2949219,15.7675781 C16.4824219,15.7675781 16.6435547,15.7016602 16.7783203,15.5698242 C16.9130859,15.4379883 16.9804688,15.2753906 16.9804688,15.0820312 C16.9804688,14.8886719 16.9130859,14.7246094 16.7783203,14.5898438 C16.6435547,14.4550781 16.4824219,14.3876953 16.2949219,14.3876953 L0.694335938,14.3876953 C0.500976562,14.3876953 0.336914062,14.4550781 0.202148438,14.5898438 C0.0673828125,14.7246094 0,14.8886719 0,15.0820312 C0,15.2753906 0.0673828125,15.4379883 0.202148438,15.5698242 C0.336914062,15.7016602 0.500976562,15.7675781 0.694335938,15.7675781 L16.2949219,15.7675781 Z" id="path-list"></path>
    </defs>
    <g id="Découpe" stroke="none" stroke-width="1" fill="none" fill-rule="evenodd">
        <g transform="translate(-284.000000, -641.000000)" id="list">
            <g transform="translate(284.000000, 641.000000)">
                <g id="Mask-2" transform="translate(4.000000, 4.000000)">
                    <mask id="mask-2" fill="white">
                        <use xlink:href="#path-list"></use>
                    </mask>
                    <use id="Mask" fill="#FFFFFF" fill-rule="nonzero" xlink:href="#path-list"></use>
                </g>
            </g>
        </g>
    </g>
</svg>