<?xml version="1.0" encoding="UTF-8"?>
<svg width="24px" height="24px" viewBox="0 0 24 24" version="1.1" xmlns="http://www.w3.org/2000/svg" xmlns:xlink="http://www.w3.org/1999/xlink">
    <title>FCB7EBE6-186C-4126-9108-D1589E543C72@3x</title>
    <defs>
        <path d="M5.31253685,10.2991512 C5.61673119,10.2991512 5.86660511,10.2013744 6.06215862,10.0058209 C6.25771212,9.81026744 6.35548887,9.56582556 6.35548887,9.2724953 C6.35548887,9.10953405 6.33104468,8.96286892 6.28215631,8.83249992 C6.23326793,8.70213092 6.15450333,8.59349008 6.04586249,8.50657741 L4.87254147,7.47992152 L3.22663281,6.12734312 L5.50809036,6.25771212 L13.0857886,6.25771212 C13.400847,6.25771212 13.6615851,6.15450333 13.8680026,5.94808574 C14.0744202,5.74166815 14.177629,5.4754981 14.177629,5.1495756 C14.177629,4.83451718 14.0744202,4.57106315 13.8680026,4.35921352 C13.6615851,4.14736389 13.400847,4.04143908 13.0857886,4.04143908 L5.50809036,4.04143908 L3.21033669,4.17180808 L4.87254147,2.80293355 L6.04586249,1.80886991 C6.25228008,1.64590866 6.35548887,1.39060269 6.35548887,1.04295202 C6.35548887,0.749621764 6.25771212,0.502463864 6.06215862,0.301478318 C5.86660511,0.100492773 5.61673119,-9.9475983e-14 5.31253685,-9.9475983e-14 C5.0192066,-9.9475983e-14 4.76933267,0.103208794 4.56291509,0.309626381 L0.423699258,4.22069646 C0.141233086,4.49229854 -1.13686838e-13,4.80192493 -1.13686838e-13,5.1495756 C-1.13686838e-13,5.49722627 0.141233086,5.80142061 0.423699258,6.06215862 L4.56291509,10.0058209 C4.66069184,10.1144618 4.77476472,10.1905104 4.90513372,10.2339667 C5.03550272,10.277423 5.17130377,10.2991512 5.31253685,10.2991512 Z M8.88138829,19.636831 C9.17471855,19.636831 9.41916043,19.5444863 9.61471393,19.3597969 L13.7539298,15.4161345 C14.0363959,15.1553965 14.177629,14.8512022 14.177629,14.5035515 C14.177629,14.1450368 14.0363959,13.8299783 13.7539298,13.5583763 L9.61471393,9.64730618 C9.51693718,9.54952943 9.40558033,9.47619687 9.28064336,9.42730849 C9.1557064,9.37842012 9.02262138,9.35397593 8.88138829,9.35397593 C8.57719396,9.35397593 8.32460401,9.45175268 8.12361847,9.64730618 C7.92263292,9.84285969 7.82214015,10.0873016 7.82214015,10.3806318 C7.82214015,10.5435931 7.84930036,10.6956902 7.90362078,10.8369233 C7.95794119,10.9781564 8.03398978,11.0867973 8.13176653,11.1628458 L9.30508755,12.1569095 L10.9672923,13.525784 L8.66953867,13.395415 L1.0918404,13.395415 C0.776781973,13.395415 0.516043968,13.4986238 0.309626381,13.7050414 C0.103208794,13.911459 -1.13686838e-13,14.177629 -1.13686838e-13,14.5035515 C-1.13686838e-13,14.8186099 0.103208794,15.082064 0.309626381,15.2939136 C0.516043968,15.5057632 0.776781973,15.611688 1.0918404,15.611688 L8.66953867,15.611688 L10.9672923,15.481319 L9.30508755,16.8176013 L8.13176653,17.8442572 C7.92534894,18.0180826 7.82214015,18.2788206 7.82214015,18.6264712 C7.82214015,18.9089374 7.92263292,19.1479472 8.12361847,19.3435007 C8.32460401,19.5390542 8.57719396,19.636831 8.88138829,19.636831 Z" id="path-order"></path>
    </defs>
    <g id="Découpe" stroke="none" stroke-width="1" fill="none" fill-rule="evenodd">
        <g transform="translate(-1015.000000, -516.000000)" id="Icon/order">
            <g transform="translate(1020.000000, 518.000000)">
                <mask id="mask-2" fill="white">
                    <use xlink:href="#path-order"></use>
                </mask>
                <use id="Mask" fill="#6E7F95" fill-rule="nonzero" xlink:href="#path-order"></use>
            </g>
        </g>
    </g>
</svg>