<?xml version="1.0" encoding="UTF-8"?>
<svg width="35px" height="35px" viewBox="0 0 35 35" version="1.1" xmlns="http://www.w3.org/2000/svg" xmlns:xlink="http://www.w3.org/1999/xlink">
    <title>6A99125E-80D4-46F1-A1C0-0C47E86962BD@3x</title>
    <defs>
        <path d="M15.0170455,33 C15.6988636,33 16.3267045,32.8424821 16.9005682,32.5274463 C17.4744318,32.2124105 17.9375,31.7897375 18.2897727,31.2594272 L18.48,30.9339952 L18.48,30.9339952 L18.5327727,30.8110053 L28.5511364,30.8105012 C28.9602273,30.8105012 29.3039773,30.6792363 29.5823864,30.4167064 C29.8607955,30.1541766 30,29.8391408 30,29.471599 C30,29.0935561 29.8607955,28.7732697 29.5823864,28.5107399 C29.3039773,28.24821 28.9602273,28.1169451 28.5511364,28.1169451 L18.5065909,28.1173232 L18.48,28.0507876 C18.4236364,27.9394749 18.3602273,27.8302625 18.2897727,27.7231504 C17.9375,27.1875895 17.4744318,26.7622912 16.9005682,26.4472554 L16.5497727,26.277136 L16.5497727,26.277136 L16.4469545,26.2402138 L16.4469545,22.6835857 L24.8181818,22.6825776 C26.5340909,22.6825776 27.8267045,22.2835322 28.6960227,21.4854415 C29.5653409,20.6873508 30,19.5059666 30,17.9412888 L30,4.74128878 C30,3.17661098 29.5653409,1.99522673 28.6960227,1.19713604 C27.8267045,0.399045346 26.5340909,0 24.8181818,0 L5.19886364,0 C3.47159091,0 2.17329545,0.399045346 1.30397727,1.19713604 C0.434659091,1.99522673 0,3.17661098 0,4.74128878 L0,17.9412888 C0,19.5059666 0.434659091,20.6873508 1.30397727,21.4854415 C2.17329545,22.2835322 3.47159091,22.6825776 5.19886364,22.6825776 L13.5669545,22.6835857 L13.5669545,26.2361814 L13.4515909,26.277136 C13.3315909,26.3275418 13.2142045,26.3842482 13.0994318,26.4472554 C12.5255682,26.7622912 12.0653409,27.1875895 11.71875,27.7231504 L11.5315909,28.0507876 L11.5315909,28.0507876 L11.5029545,28.1173232 L1.44886364,28.1169451 C1.05113636,28.1169451 0.710227273,28.24821 0.426136364,28.5107399 C0.142045455,28.7732697 0,29.0935561 0,29.471599 C0,29.8391408 0.142045455,30.1541766 0.426136364,30.4167064 C0.710227273,30.6792363 1.05113636,30.8105012 1.44886364,30.8105012 L11.4789545,30.8110053 L11.5315909,30.9339952 C11.5870455,31.0448878 11.6494318,31.1533652 11.71875,31.2594272 C12.0653409,31.7897375 12.5255682,32.2124105 13.0994318,32.5274463 C13.6732955,32.8424821 14.3125,33 15.0170455,33 Z M24.6818182,19.9890215 L5.31818182,19.9890215 C4.55681818,19.9890215 3.96875,19.8026253 3.55397727,19.4298329 C3.13920455,19.0570406 2.93181818,18.497852 2.93181818,17.7522673 L2.93181818,4.93031026 C2.93181818,4.19522673 3.13920455,3.63866348 3.55397727,3.26062053 C3.96875,2.88257757 4.55681818,2.69355609 5.31818182,2.69355609 L24.6818182,2.69355609 C25.4431818,2.69355609 26.0340909,2.88257757 26.4545455,3.26062053 C26.875,3.63866348 27.0852273,4.19522673 27.0852273,4.93031026 L27.0852273,17.7522673 C27.0852273,18.497852 26.875,19.0570406 26.4545455,19.4298329 C26.0340909,19.8026253 25.4431818,19.9890215 24.6818182,19.9890215 Z" id="path-1"></path>
    </defs>
    <g id="Découpe" stroke="none" stroke-width="1" fill="none" fill-rule="evenodd">
        <g transform="translate(-275.000000, -357.000000)" id="ping">
            <g transform="translate(277.000000, 358.000000)">
                <mask id="mask-2" fill="white">
                    <use xlink:href="#path-1"></use>
                </mask>
                <use id="Mask" fill="#6E7F95" fill-rule="nonzero" xlink:href="#path-1"></use>
            </g>
        </g>
    </g>
</svg>