<svg width="24px" height="24px" viewBox="0 0 24 24" version="1.1" xmlns="http://www.w3.org/2000/svg" xmlns:xlink="http://www.w3.org/1999/xlink">
    <defs>
        <path d="M8.45301894,13 C8.74836251,13 8.98416101,12.9153094 9.16041443,12.7459283 C9.33666786,12.5765472 9.42479457,12.3695259 9.42479457,12.1248643 C9.42479457,11.9884184 9.39621293,11.854325 9.33904966,11.7225841 C9.28188639,11.5908433 9.19614148,11.4591024 9.08181493,11.3273616 C8.93414315,11.1720955 8.8186257,11.005067 8.73526259,10.8262758 C8.65189949,10.6474846 8.61021793,10.4592834 8.61021793,10.2616721 C8.61021793,9.88997467 8.7364535,9.57120883 8.98892462,9.30537459 C9.24139574,9.03954035 9.57961177,8.90662324 10.0035727,8.90662324 C10.4275336,8.90662324 10.7657497,9.03954035 11.0182208,9.30537459 C11.2706919,9.57120883 11.3969275,9.88997467 11.3969275,10.2616721 C11.3969275,10.4592834 11.354055,10.6474846 11.2683101,10.8262758 C11.1825652,11.005067 11.0682387,11.1720955 10.9253305,11.3273616 C10.8110039,11.4591024 10.725259,11.5908433 10.6680957,11.7225841 C10.6109325,11.854325 10.5823508,11.9884184 10.5823508,12.1248643 C10.5823508,12.3695259 10.6704776,12.5765472 10.846731,12.7459283 C11.0229844,12.9153094 11.2564011,13 11.5469811,13 L13.7906395,13 C14.4718352,13 14.99345,12.8259139 15.3554841,12.4777416 C15.7175182,12.1295693 15.8985352,11.621426 15.8985352,10.9533116 L15.8985352,8.66666667 C15.8985352,8.61491133 15.9163987,8.5796236 15.9521258,8.56080347 C15.9878528,8.54198335 16.0366798,8.55139341 16.0986066,8.58903366 C16.3034417,8.72547955 16.5261403,8.83840029 16.7667024,8.92779587 C17.0072645,9.01719146 17.2633083,9.06188925 17.5348339,9.06188925 C17.9635584,9.06188925 18.3660831,8.95602606 18.742408,8.74429967 C19.1187329,8.53257329 19.4224128,8.23615635 19.6534477,7.85504886 C19.8844826,7.47394137 20,7.02931596 20,6.52117264 C20,6.01302932 19.8844826,5.56840391 19.6534477,5.18729642 C19.4224128,4.80618893 19.1187329,4.50859573 18.742408,4.29451683 C18.3660831,4.08043793 17.9635584,3.97339848 17.5348339,3.97339848 C17.2633083,3.97339848 17.0072645,4.01809627 16.7667024,4.10749186 C16.5261403,4.19688744 16.3034417,4.31216069 16.0986066,4.45331162 C16.0366798,4.49565689 15.9878528,4.50741947 15.9521258,4.48859935 C15.9163987,4.46977923 15.8985352,4.43213898 15.8985352,4.37567861 L15.8985352,2.03963084 C15.8985352,1.3762215 15.7175182,0.870430691 15.3554841,0.522258415 C14.99345,0.174086138 14.4718352,0 13.7906395,0 L11.5469811,0 C11.2564011,0 11.0229844,0.0846905537 10.846731,0.254071661 C10.6704776,0.423452769 10.5823508,0.630474122 10.5823508,0.875135722 C10.5823508,1.00687658 10.6109325,1.1397937 10.6680957,1.27388708 C10.725259,1.40798046 10.8110039,1.53854506 10.9253305,1.66558089 C11.0682387,1.82555194 11.1825652,1.99375679 11.2683101,2.17019544 C11.354055,2.34663409 11.3969275,2.53365907 11.3969275,2.73127036 C11.3969275,3.09826276 11.269501,3.41585233 11.0146481,3.68403909 C10.7597952,3.95222584 10.42277,4.08631922 10.0035727,4.08631922 C9.58437537,4.08631922 9.24735024,3.95222584 8.99249732,3.68403909 C8.7376444,3.41585233 8.61021793,3.09826276 8.61021793,2.73127036 C8.61021793,2.53365907 8.65189949,2.34663409 8.73526259,2.17019544 C8.8186257,1.99375679 8.93414315,1.82555194 9.08181493,1.66558089 C9.19614148,1.53854506 9.28188639,1.40798046 9.33904966,1.27388708 C9.39621293,1.1397937 9.42479457,1.00687658 9.42479457,0.875135722 C9.42479457,0.630474122 9.33666786,0.423452769 9.16041443,0.254071661 C8.98416101,0.0846905537 8.74836251,0 8.45301894,0 L6.21650589,0 C5.53054662,0 5.00774086,0.174086138 4.6480886,0.522258415 C4.28843635,0.870430691 4.10861022,1.3762215 4.10861022,2.03963084 L4.10861022,4.37567861 C4.10861022,4.43213898 4.0907467,4.46977923 4.05501965,4.48859935 C4.0192926,4.50741947 3.97046564,4.49565689 3.90853876,4.45331162 C3.7037037,4.31216069 3.48100512,4.19688744 3.24044302,4.10749186 C2.99988091,4.01809627 2.74383708,3.97339848 2.47231154,3.97339848 C2.03882339,3.97339848 1.63391688,4.08043793 1.257592,4.29451683 C0.881267119,4.50859573 0.577587234,4.80618893 0.34655234,5.18729642 C0.115517447,5.56840391 0,6.01302932 0,6.52117264 C0,7.02931596 0.115517447,7.47394137 0.34655234,7.85504886 C0.577587234,8.23615635 0.881267119,8.53257329 1.257592,8.74429967 C1.63391688,8.95602606 2.03882339,9.06188925 2.47231154,9.06188925 C2.74383708,9.06188925 2.99988091,9.01719146 3.24044302,8.92779587 C3.48100512,8.83840029 3.7037037,8.72547955 3.90853876,8.58903366 C3.97046564,8.55139341 4.0192926,8.54198335 4.05501965,8.56080347 C4.0907467,8.5796236 4.10861022,8.61491133 4.10861022,8.66666667 L4.10861022,10.9533116 C4.10861022,11.621426 4.28843635,12.1295693 4.6480886,12.4777416 C5.00774086,12.8259139 5.53054662,13 6.21650589,13 L8.45301894,13 Z M7.7170418,11.8213898 L6.23794212,11.8213898 C5.94259855,11.8213898 5.71275456,11.7414043 5.54841015,11.5814332 C5.38406574,11.4214622 5.30189353,11.1932682 5.30189353,10.8968512 L5.30189353,8.05266015 C5.30189353,7.76094824 5.21614862,7.52804922 5.04465881,7.35396308 C4.87316899,7.17987695 4.66118852,7.09283388 4.4087174,7.09283388 C4.27057282,7.09283388 4.13481005,7.12106406 4.00142908,7.17752443 C3.86804811,7.2339848 3.73704895,7.31867535 3.60843158,7.43159609 C3.44646898,7.57274701 3.27617006,7.68566775 3.09753483,7.77035831 C2.91889961,7.85504886 2.72954627,7.89739414 2.52947481,7.89739414 C2.15791354,7.89739414 1.83756103,7.77153456 1.56841729,7.51981542 C1.29927355,7.26809627 1.16470168,6.93521535 1.16470168,6.52117264 C1.16470168,6.10712993 1.29927355,5.774249 1.56841729,5.52252986 C1.83756103,5.27081071 2.15791354,5.14495114 2.52947481,5.14495114 C2.72954627,5.14495114 2.91889961,5.18612016 3.09753483,5.2684582 C3.27617006,5.35079624 3.44646898,5.46489323 3.60843158,5.61074919 C3.73704895,5.72366992 3.86804811,5.80836048 4.00142908,5.86482085 C4.13481005,5.92128122 4.27057282,5.9495114 4.4087174,5.9495114 C4.66118852,5.9495114 4.87316899,5.86246833 5.04465881,5.68838219 C5.21614862,5.51429606 5.30189353,5.28139703 5.30189353,4.98968512 L5.30189353,2.10314875 C5.30189353,1.80202678 5.38406574,1.57148028 5.54841015,1.41150923 C5.71275456,1.25153818 5.94259855,1.17155266 6.23794212,1.17155266 L7.7170418,1.17155266 C7.8742408,1.17155266 7.94688579,1.20213536 7.93497678,1.26330076 C7.92306776,1.32446616 7.89567703,1.38798408 7.85280457,1.45385451 C7.72895082,1.6514658 7.62653329,1.86083967 7.54555198,2.08197611 C7.46457068,2.30311256 7.42408003,2.5383641 7.42408003,2.78773073 C7.42408003,3.21588853 7.53126116,3.61581614 7.74562344,3.98751357 C7.95998571,4.359211 8.26009289,4.65915671 8.64594498,4.88735071 C9.03179707,5.1155447 9.48433965,5.22964169 10.0035727,5.22964169 C10.5180422,5.22964169 10.9682029,5.1155447 11.354055,4.88735071 C11.7399071,4.65915671 12.0412052,4.359211 12.2579493,3.98751357 C12.4746933,3.61581614 12.5830654,3.21588853 12.5830654,2.78773073 C12.5830654,2.5383641 12.5425747,2.30311256 12.4615934,2.08197611 C12.3806121,1.86083967 12.2758128,1.6514658 12.1471954,1.45385451 C12.1090866,1.38798408 12.0840776,1.32446616 12.0721686,1.26330076 C12.0602596,1.20213536 12.1305228,1.17155266 12.2829582,1.17155266 L13.7692033,1.17155266 C14.0645469,1.17155266 14.2943909,1.25153818 14.4587353,1.41150923 C14.6230797,1.57148028 14.7052519,1.80202678 14.7052519,2.10314875 L14.7052519,4.98968512 C14.7052519,5.28139703 14.7909968,5.51429606 14.9624866,5.68838219 C15.1339764,5.86246833 15.3435751,5.9495114 15.5912826,5.9495114 C15.7294272,5.9495114 15.8651899,5.92128122 15.9985709,5.86482085 C16.1319519,5.80836048 16.2653329,5.72366992 16.3987138,5.61074919 C16.5606764,5.46489323 16.7309753,5.35079624 16.9096106,5.2684582 C17.0882458,5.18612016 17.2752173,5.14495114 17.4705252,5.14495114 C17.8468501,5.14495114 18.1695844,5.27081071 18.4387281,5.52252986 C18.7078719,5.774249 18.8424437,6.10712993 18.8424437,6.52117264 C18.8424437,6.93521535 18.7078719,7.26809627 18.4387281,7.51981542 C18.1695844,7.77153456 17.8468501,7.89739414 17.4705252,7.89739414 C17.2752173,7.89739414 17.0882458,7.85504886 16.9096106,7.77035831 C16.7309753,7.68566775 16.5606764,7.57274701 16.3987138,7.43159609 C16.2653329,7.31867535 16.1319519,7.2339848 15.9985709,7.17752443 C15.8651899,7.12106406 15.7294272,7.09283388 15.5912826,7.09283388 C15.3435751,7.09283388 15.1339764,7.17987695 14.9624866,7.35396308 C14.7909968,7.52804922 14.7052519,7.76094824 14.7052519,8.05266015 L14.7052519,10.8968512 C14.7052519,11.1932682 14.6230797,11.4214622 14.4587353,11.5814332 C14.2943909,11.7414043 14.0645469,11.8213898 13.7692033,11.8213898 L12.2829582,11.8213898 C12.1305228,11.8213898 12.0602596,11.7908071 12.0721686,11.7296417 C12.0840776,11.6684763 12.1090866,11.6073109 12.1471954,11.5461455 C12.2758128,11.3485342 12.3806121,11.1379841 12.4615934,10.9144951 C12.5425747,10.6910062 12.5830654,10.4545784 12.5830654,10.2052117 C12.5830654,9.7723489 12.4758842,9.37124502 12.261522,9.00190011 C12.0471597,8.63255519 11.7470525,8.334962 11.3612004,8.10912052 C10.9753483,7.88327904 10.5228058,7.77035831 10.0035727,7.77035831 C9.48433965,7.77035831 9.03179707,7.88327904 8.64594498,8.10912052 C8.26009289,8.334962 7.95998571,8.63255519 7.74562344,9.00190011 C7.53126116,9.37124502 7.42408003,9.7723489 7.42408003,10.2052117 C7.42408003,10.4545784 7.46457068,10.6910062 7.54555198,10.9144951 C7.62653329,11.1379841 7.72895082,11.3485342 7.85280457,11.5461455 C7.89567703,11.6073109 7.92306776,11.6684763 7.93497678,11.7296417 C7.94688579,11.7908071 7.8742408,11.8213898 7.7170418,11.8213898 Z" id="path-plugin"></path>
    </defs>
    <g id="Découpe" stroke="none" stroke-width="1" fill="none" fill-rule="evenodd">
        <g transform="translate(-324.000000, -745.000000)" id="Icon/menu-plugin">
            <g transform="translate(324.000000, 745.000000)">
                <g id="Mask-2" transform="translate(2.000000, 5.000000)">
                    <mask id="mask-2" fill="white">
                        <use xlink:href="#path-plugin"></use>
                    </mask>
                    <use id="Mask" fill="white" fill-rule="nonzero" xlink:href="#path-plugin"></use>
                </g>
            </g>
        </g>
    </g>
</svg>