<?xml version="1.0" encoding="UTF-8"?>
<svg width="24px" height="24px" viewBox="0 0 24 24" version="1.1" xmlns="http://www.w3.org/2000/svg" xmlns:xlink="http://www.w3.org/1999/xlink">
    <title>EA882D4A-264E-4568-856A-D210AB8DEC54@3x</title>
    <defs>
        <path d="M6.2421875,6.46875 C6.7734375,6.46875 7.26432292,6.32421875 7.71484375,6.03515625 C8.16536458,5.74609375 8.52734375,5.35416667 8.80078125,4.859375 C9.07421875,4.36458333 9.2109375,3.80729167 9.2109375,3.1875 C9.2109375,2.58854167 9.07421875,2.04817708 8.80078125,1.56640625 C8.52734375,1.08463542 8.16536458,0.703125 7.71484375,0.421875 C7.26432292,0.140625 6.7734375,0 6.2421875,0 C5.7109375,0 5.21875,0.141927083 4.765625,0.42578125 C4.3125,0.709635417 3.94921875,1.09375 3.67578125,1.578125 C3.40234375,2.0625 3.26822917,2.60416667 3.2734375,3.203125 C3.2734375,3.8125 3.40885417,4.36458333 3.6796875,4.859375 C3.95052083,5.35416667 4.31119792,5.74609375 4.76171875,6.03515625 C5.21223958,6.32421875 5.70572917,6.46875 6.2421875,6.46875 Z M10.8515625,13.328125 C11.4505208,13.328125 11.8697917,13.2421875 12.109375,13.0703125 C12.3489583,12.8984375 12.46875,12.6458333 12.46875,12.3125 C12.46875,11.8333333 12.3242188,11.3320312 12.0351562,10.8085938 C11.7460938,10.2851562 11.3294271,9.79427083 10.7851562,9.3359375 C10.2408854,8.87760417 9.5859375,8.50520833 8.8203125,8.21875 C8.0546875,7.93229167 7.19270833,7.7890625 6.234375,7.7890625 C5.27604167,7.7890625 4.41276042,7.93229167 3.64453125,8.21875 C2.87630208,8.50520833 2.22135417,8.87760417 1.6796875,9.3359375 C1.13802083,9.79427083 0.72265625,10.2851562 0.43359375,10.8085938 C0.14453125,11.3320312 0,11.8333333 0,12.3125 C0,12.6458333 0.119791667,12.8984375 0.359375,13.0703125 C0.598958333,13.2421875 1.015625,13.328125 1.609375,13.328125 L10.8515625,13.328125 Z" id="path-user"></path>
    </defs>
    <g id="Découpe" stroke="none" stroke-width="1" fill="none" fill-rule="evenodd">
        <g transform="translate(-333.000000, -643.000000)" id="Icon/user">
            <g transform="translate(333.000000, 643.000000)">
                <g id="Mask-2" transform="translate(6.000000, 6.000000)">
                    <mask id="mask-2" fill="white">
                        <use xlink:href="#path-user"></use>
                    </mask>
                    <use id="Mask" fill="white" fill-rule="nonzero" xlink:href="#path-user"></use>
                </g>
            </g>
        </g>
    </g>
</svg>