<?xml version="1.0" encoding="UTF-8"?>
<svg width="24px" height="24px" viewBox="0 0 24 24" version="1.1" xmlns="http://www.w3.org/2000/svg" xmlns:xlink="http://www.w3.org/1999/xlink">
    <title>81C8CD43-95FF-46B5-B930-380D144BBEBC@3x</title>
    <defs>
        <path d="M3.31794434,19.928361 C4.10603027,19.9341465 4.84870605,19.5913731 5.54597168,18.8999668 C5.7979248,18.6480137 6.04841309,18.3316075 6.29743652,17.9507481 C6.54645996,17.5698887 6.79255371,17.1685215 7.03571777,16.7466465 C7.27888184,16.3247715 7.51179199,15.926334 7.73444824,15.551334 C7.95710449,15.176334 8.1651123,14.8687168 8.35847168,14.6284825 L10.1074951,16.386295 C10.4414795,16.7261387 10.8032959,16.8975254 11.1929443,16.9004551 C11.5825928,16.9033848 11.9414795,16.7407871 12.2696045,16.4126621 L13.3506592,15.3140293 C13.6787842,14.9859043 13.8428467,14.6314121 13.8428467,14.2505528 C13.8428467,14.0601231 13.8003662,13.8748203 13.7154053,13.6946446 L13.6560576,13.5850528 L17.1387451,10.1021153 C17.6133545,9.6275059 17.8462646,9.1221348 17.8374756,8.58600199 C17.8286865,8.04986918 17.5811279,7.53863871 17.0947998,7.05231058 L10.5733154,0.504459021 C10.3389404,0.275943396 10.0781982,0.12506449 9.79108887,0.0518223025 C9.50397949,-0.021419885 9.22126465,-0.0170253538 8.94294434,0.0650058962 C8.66462402,0.147037146 8.41999512,0.294986365 8.20905762,0.508853552 C7.99812012,0.72272074 7.85163574,1.00543558 7.76960449,1.35699808 C7.61726074,2.04254496 7.4854248,2.61822855 7.37409668,3.08404886 C7.26276855,3.54986918 7.15876465,3.94830668 7.06208496,4.27936136 C6.96540527,4.61041605 6.85847168,4.90777933 6.74128418,5.17145121 C6.62409668,5.43512308 6.48200684,5.70172465 6.31501465,5.9712559 L6.20937012,6.13859965 L6.20937012,6.13859965 L6.17605762,6.19005277 L6.09933929,6.15671885 C5.9629715,6.1074177 5.82392578,6.08221781 5.68220215,6.08111918 C5.30427246,6.07818949 4.94538574,6.24371683 4.60554199,6.57770121 L3.51569824,7.6587559 C3.19343262,7.99274027 3.0322998,8.35162699 3.0322998,8.73541605 C3.0322998,9.11920511 3.20222168,9.48102152 3.54206543,9.82086527 L5.29108887,11.5698887 C5.05671387,11.7632481 4.75349121,11.9727207 4.3814209,12.1983067 C4.00935059,12.4238926 3.61091309,12.6568028 3.1861084,12.8970371 C2.76130371,13.1372715 2.35847168,13.3819004 1.9776123,13.6309239 C1.59675293,13.8799473 1.28327637,14.1304356 1.03718262,14.3823887 C0.339916992,15.0855137 -0.00578613281,15.8311192 -4.61852778e-14,16.6192051 C0.00593261719,17.4072911 0.363354492,18.1558262 1.07233887,18.8648106 C1.78132324,19.5679356 2.5298584,19.9224278 3.31794434,19.928361 Z M12.6910576,12.5280528 L7.30105762,7.14705277 L7.37214355,7.03766215 C7.46328939,6.89508402 7.54597168,6.75787699 7.62019043,6.62604105 C7.84284668,6.23053324 8.02888184,5.82623636 8.1782959,5.41315043 C8.32770996,5.00006449 8.47126465,4.53277933 8.60895996,4.01129496 C8.74665527,3.48981058 8.9151123,2.85992777 9.11433105,2.12164652 C9.16120605,1.92242777 9.25495605,1.80084574 9.39558105,1.75690043 C9.53620605,1.71295511 9.67097168,1.75543558 9.79987793,1.88434183 L13.6700576,5.74405277 L13.6652802,5.77796519 C13.5646637,6.4037739 13.3631104,6.95892679 13.0606201,7.44342386 C12.714917,7.9971348 12.3106201,8.50543558 11.8477295,8.96832621 C11.7364014,9.08551371 11.7276123,9.19391215 11.8213623,9.29352152 C11.9326904,9.39899027 12.1450928,9.40777933 12.4585693,9.31988871 C12.7720459,9.23199808 13.1265381,9.08111918 13.5220459,8.86725199 C13.9175537,8.6533848 14.2984131,8.4087559 14.664624,8.13336527 C14.9575928,7.91305277 15.200874,7.69649027 15.3944678,7.48367777 L15.4040576,7.47305277 L15.996167,8.06305277 C16.1778076,8.2446934 16.2686279,8.43658793 16.2686279,8.63873636 C16.2686279,8.8408848 16.1865967,9.02691996 16.0225342,9.19684183 L12.6910576,12.5280528 Z M3.3267334,18.4737299 C2.88435059,18.4707676 2.46101074,18.2730137 2.05671387,17.8804356 C1.65827637,17.4761387 1.45759277,17.0498692 1.45463053,16.601627 C1.4517334,16.1533848 1.64655762,15.7359043 2.03913574,15.3491856 C2.36726074,15.0210606 2.7642334,14.7061192 3.23005371,14.4043614 C3.69587402,14.1026036 4.16608887,13.8184239 4.64069824,13.5518223 C5.11530762,13.2852207 5.54157715,13.0420567 5.91950684,12.8223301 C6.29743652,12.6026036 6.56843262,12.410709 6.73249512,12.2466465 C6.90827637,12.0591465 7.00349121,11.8643223 7.01813965,11.6621739 C7.03278809,11.4600254 6.95808105,11.2798496 6.79401855,11.1216465 L4.78132324,9.11774027 C4.57624512,8.91266215 4.57624512,8.70465433 4.78132324,8.49371683 L5.44050293,7.86090433 C5.65144043,7.64996683 5.85944824,7.64703715 6.06452637,7.85211527 L12.0762451,13.8726231 C12.2813232,14.0718418 12.2783936,14.27692 12.0674561,14.4878575 L11.4346436,15.129459 C11.2237061,15.3521153 11.0127686,15.355045 10.8018311,15.1382481 L8.80671387,13.1343418 C8.64851074,12.9761387 8.46833496,12.9043614 8.26618652,12.9190098 C8.06403809,12.9336582 7.86921387,13.0288731 7.68171387,13.2046543 C7.51765137,13.3687168 7.32575684,13.6382481 7.10603027,14.0132481 C6.88630371,14.3882481 6.64460449,14.8145176 6.38093262,15.2920567 C6.11726074,15.7695957 5.8345459,16.2398106 5.53278809,16.7027012 C5.23103027,17.1655918 4.91315918,17.5610996 4.5791748,17.8892246 C4.18659668,18.2818028 3.76911621,18.476627 3.3267334,18.4737299 Z M3.29597168,17.65192 C3.5713623,17.65192 3.8057373,17.5537754 3.99909668,17.3574864 C4.19245605,17.1611973 4.28913574,16.9253575 4.28913574,16.6499668 C4.28913574,16.3687168 4.19245605,16.1314121 3.99909668,15.9380528 C3.8057373,15.7446934 3.5713623,15.6480137 3.29597168,15.6480137 C3.01472168,15.6480137 2.77741699,15.7446934 2.58405762,15.9380528 C2.39069824,16.1314121 2.29401855,16.3687168 2.29401855,16.6499668 C2.29401855,16.9253575 2.39069824,17.1611973 2.58405762,17.3574864 C2.77741699,17.5537754 3.01472168,17.65192 3.29597168,17.65192 Z" id="path-view"></path>
    </defs>
    <g id="Découpe" stroke="none" stroke-width="1" fill="none" fill-rule="evenodd">
        <g transform="translate(-284.000000, -745.000000)" id="Icon/menu-paint">
            <g transform="translate(284.000000, 745.000000)">
                <g id="Mask-2" transform="translate(3.000000, 2.000000)">
                    <mask id="mask-2" fill="white">
                        <use xlink:href="#path-view"></use>
                    </mask>
                    <use id="Mask" fill="white" fill-rule="nonzero" xlink:href="#path-view"></use>
                </g>
            </g>
        </g>
    </g>
</svg>